<?xml version="1.0" encoding="UTF-8"?>
<svg id="Layer_1" data-name="Layer 1" xmlns="http://www.w3.org/2000/svg" viewBox="0 0 409.71 338.36">
  <defs>
    <style>
      .cls-1 {
        font-family: AcuminConcept-CondSemibold, 'Acumin Variable Concept';
        font-size: 12px;
        font-variation-settings: 'wght' 600, 'wdth' 67, 'slnt' 0;
        font-weight: 600;
      }

      .cls-2 {
        fill: #fabe8f;
      }

      .cls-3 {
        fill: #f1e8e2;
      }

      .cls-4 {
        fill: #ecf4f8;
      }

      .cls-5 {
        fill: #29455b;
      }

      .cls-6 {
        fill: #fac6a2;
      }

      .cls-7 {
        fill: #687987;
      }

      .cls-8 {
        fill: #f5b68b;
      }

      .cls-9 {
        fill: #eaf2f6;
      }

      .cls-10 {
        fill: #eeb48f;
      }

      .cls-11 {
        fill: #f5ceb4;
      }

      .cls-12 {
        fill: #b6bdc2;
      }

      .cls-13 {
        fill: #eceff2;
      }

      .cls-14 {
        fill: #eeebe8;
      }

      .cls-15 {
        fill: #ebeef0;
      }

      .cls-16 {
        fill: #f0b085;
      }

      .cls-17 {
        fill: #28445a;
      }

      .cls-18 {
        fill: #ebf1f4;
      }

      .cls-19 {
        fill: #d0d8de;
      }

      .cls-20 {
        fill: #edf2f5;
      }

      .cls-21 {
        fill: #765d4b;
      }

      .cls-22 {
        fill: #eef4f7;
      }

      .cls-23 {
        fill: #27445a;
      }

      .cls-24 {
        fill: #fd6706;
      }

      .cls-25 {
        fill: #cba58c;
      }

      .cls-26 {
        fill: #f0f7f9;
      }

      .cls-27 {
        fill: #b1bec7;
      }

      .cls-28 {
        fill: #ecf1f5;
      }

      .cls-29 {
        fill: #b4bbc0;
      }

      .cls-30 {
        fill: #f5fafc;
      }

      .cls-31 {
        fill: #edf2f6;
      }

      .cls-32 {
        fill: #edf1f4;
      }

      .cls-33 {
        fill: #f9c19b;
      }

      .cls-34 {
        fill: #2a465b;
      }

      .cls-35 {
        fill: #957966;
      }

      .cls-36 {
        fill: #b3bdc3;
      }

      .cls-37 {
        fill: #829097;
      }

      .cls-38 {
        fill: #6c7e8c;
      }

      .cls-39 {
        fill: #b3c0c9;
      }

      .cls-40 {
        fill: #ebeff2;
      }

      .cls-41 {
        fill: #cfd8df;
      }

      .cls-42 {
        fill: #cfdae1;
      }

      .cls-43 {
        fill: #edf3f6;
      }

      .cls-44 {
        fill: #ebf0f3;
      }

      .cls-45 {
        fill: #fccdab;
      }

      .cls-46 {
        fill: #264259;
      }

      .cls-47 {
        fill: #f3c6a1;
      }

      .cls-48 {
        fill: #facdae;
      }

      .cls-49 {
        fill: #fd6505;
      }

      .cls-50 {
        fill: #e1641f;
      }

      .cls-51 {
        fill: #6d7d89;
      }

      .cls-52 {
        fill: #b5c2cb;
      }

      .cls-53 {
        fill: #d1aa91;
      }

      .cls-54 {
        fill: #cfd9e0;
      }

      .cls-55 {
        fill: #f9bf97;
      }

      .cls-56 {
        fill: #cba48c;
      }

      .cls-57 {
        fill: #cfd9e1;
      }

      .cls-58 {
        fill: #d3dde3;
      }

      .cls-59 {
        fill: #efb693;
      }

      .cls-60 {
        letter-spacing: 0em;
      }

      .cls-61 {
        fill: #fff;
      }

      .cls-62 {
        letter-spacing: 0em;
      }

      .cls-63 {
        fill: #e8f0f5;
      }

      .cls-64 {
        fill: #667481;
      }

      .cls-65 {
        fill: #9e775f;
      }

      .cls-66 {
        fill: #cad6de;
      }

      .cls-67 {
        letter-spacing: 0em;
      }

      .cls-68 {
        letter-spacing: 0em;
      }

      .cls-69 {
        fill: #b2bfc8;
      }

      .cls-70 {
        fill: #eff5f7;
      }

      .cls-71 {
        fill: #7c5d48;
      }

      .cls-72 {
        letter-spacing: 0em;
      }

      .cls-73 {
        fill: #eaeff2;
      }

      .cls-74 {
        fill: #6b7983;
      }

      .cls-75 {
        fill: #b2c0c9;
      }

      .cls-76 {
        fill: #687986;
      }

      .cls-77 {
        fill: #e26621;
      }

      .cls-78 {
        fill: #d09f82;
      }

      .cls-79 {
        fill: #fb6508;
      }

      .cls-80 {
        fill: #e2651e;
      }

      .cls-81 {
        fill: #e8f0f3;
      }

      .cls-82 {
        fill: #fcc299;
      }

      .cls-83 {
        fill: #f5b080;
      }

      .cls-84 {
        fill: #697783;
      }

      .cls-85 {
        fill: #ecf0f2;
      }

      .cls-86 {
        fill: #e8f2f6;
      }

      .cls-87 {
        fill: #ebf1f5;
      }

      .cls-88 {
        fill: #f0f6f9;
      }

      .cls-89 {
        fill: #849099;
      }

      .cls-90 {
        fill: #df6828;
      }

      .cls-91 {
        fill: #eaedef;
      }

      .cls-92 {
        fill: #d0d9e0;
      }

      .cls-93 {
        fill: #6a7b89;
      }

      .cls-94 {
        fill: #b3c1c9;
      }

      .cls-95 {
        fill: #657684;
      }

      .cls-96 {
        fill: #eaeef2;
      }

      .cls-97 {
        letter-spacing: -.01em;
      }

      .cls-98 {
        fill: #eff3f6;
      }

      .cls-99 {
        fill: #efefee;
      }

      .cls-100 {
        letter-spacing: 0em;
      }

      .cls-101 {
        letter-spacing: 0em;
      }

      .cls-102 {
        fill: #e9f0f3;
      }

      .cls-103 {
        letter-spacing: 0em;
      }

      .cls-104 {
        letter-spacing: 0em;
      }

      .cls-105 {
        letter-spacing: 0em;
      }

      .cls-106 {
        fill: #eef3f6;
      }

      .cls-107 {
        fill: #9e7c65;
      }

      .cls-108 {
        letter-spacing: 0em;
      }

      .cls-109 {
        fill: #ebf4f9;
      }

      .cls-110 {
        fill: #ecf0f1;
      }

      .cls-111 {
        fill: #fc6504;
      }

      .cls-112 {
        fill: #d0dae1;
      }

      .cls-113 {
        fill: #f8ceb1;
      }

      .cls-114 {
        fill: #cea68d;
      }

      .cls-115 {
        fill: #e36c23;
      }

      .cls-116 {
        letter-spacing: 0em;
      }

      .cls-117 {
        fill: #28455b;
      }

      .cls-118 {
        letter-spacing: 0em;
      }

      .cls-119 {
        fill: #fac49f;
      }

      .cls-120 {
        fill: #647684;
      }

      .cls-121 {
        fill: #ebf3f8;
      }
    </style>
  </defs>
  <g id="Generative_Object" data-name="Generative Object">
    <path class="cls-61" d="M311.09,29.69c-.28.21-.69-.11-.94-.05-.1-.94,1.22-.84.94.05Z"/>
    <g>
      <path class="cls-92" d="M257.83,305.06l25.68.02c-.28,10.69.67,21.49,3.67,31.74l-165.48.08c6.07-20.01,3.94-43.16,2.13-64.22,9.47,14.15,20.52,27.1,33.74,38.33,8.91,7.57,18.78,12.36,30.24,14.39,26.62,4.73,51.77-.6,70.02-20.34Z"/>
      <path class="cls-34" d="M175.01,318.86c-.2.58.38.48.72.56,4.84,2.01,9.99,2.77,15.03,3.94,8.75,2.03,17.87,1.64,26.72.3,13.94-2.11,26.84-8.31,36.64-18.56l3.72-.03c-18.25,19.74-43.4,25.07-70.02,20.34-11.46-2.04-21.33-6.82-30.24-14.39-13.21-11.23-24.27-24.18-33.74-38.33,1.82,21.06,3.94,44.21-2.13,64.22-.24.57-.57.94-.96,1.16-.74.42-1.41.07-1.61-.34-.37-.73.03-1.56.24-2.24,2.59-8.37,3.74-16.86,3.68-25.92-.08-14,.2-28-2.99-42.24-2.38-10.58-7.03-20.32-8.32-30.93.28-.89-1.04-.99-.94-.05-7.03,1.69-11.9-3.17-15.14-9.79-5.34-10.89-8.39-22.07-11.21-33.75-1.71-7.09-3.67-13.79-3.75-21.23-.08-7.66,1.92-19.05,10.24-20.63,3.68-.7,6.36,1.06,9.29,2.55.02,1.13,1.8,1.13,1.44-.13-.54-4.49-1.56-8.96-1.47-13.48l.85-.59c3.32,6.11,2.87,14.42,4.52,22.1-4.5-.75-8.21-10.46-15.17-7.69-5.44,2.17-6.6,9.38-6.99,14.27-.62,7.68,1.13,14.86,3.06,22.47,2.72,10.7,8.89,36.83,17.77,42.62,6.33,4.13,9.49-5.86,10.1-.41,1.7,15.15,5.66,30.37,14.62,42.98,10.18,14.32,30.17,37.4,46.06,43.21Z"/>
      <path class="cls-117" d="M309.58,87.27c.16.71.24,1.48-.24,2.14-.07,1.25-1.33.66-2.23.81-3.96-31.09-20.1-59.27-49.28-74.64C226.05-1.17,187.81-1.72,155.64,13.33c-22.7,10.62-39.36,29.03-47.97,52.63-4.76,13.06-6.33,25.94-7.37,39.22-.66-.05-1.31.03-1.97.08-.25-11.9,1.77-23.61,5.42-35.53,8.47-27.64,27.91-49.31,54.7-60.52,51.7-21.62,118.18-5.21,142.43,49.11,4.32,9.67,6.45,19.15,8.69,28.94Z"/>
      <path class="cls-77" d="M208.16,289.9c2.28,2.37,6.11,3.52,8.12,6.71,2.31-1.48,4.72-2.17,6.83-1-.17.43-.73.66-.56,1.16-1.01.42-3.58-.21-4.25.99-.23,3.02,3.01,5.53,5.8,5.04,2.17-.38,4.51.66,6.67-.04.64-.21,1.52.01,2.21.01l24.31.06c1.22,0,2.46-.2,3.68-.13,7.5.42,15.05.11,22.57.11h2.29l30.84.03c1.31,0,2.63-.09,3.94-.01,2.47.15,4.94.02,7.42,0l3.87-.03c9.32-.08,3.22,2.11,4.94,2.1l-51.02.18h-2.3s-25.68-.02-25.68-.02l-3.72.03h-21.08c-.52,0-1.06.07-1.57,0-2.79-.37-7.74.17-10.31.06-.72-.03-2.67-.65-2.88.54-1.4,8-8.1,13.06-15.7,12.2-7.19-.81-11.91-7.03-12.28-14.69-1.21-1.28-3.11,2.11-2.57,2.55l-3.7,2.35v-.75c.9-.81,7.76-7.77,7.09-9.2-1.03-2.21-3.3-.97-4.8-1.43.28-.66-.58-.72-.76-1.29,2.23-1.05,4.87-.71,7.06.65,3.3-3.18,7.48-6.62,12.33-5.87.46.39.62.75.97.17.28-.46.9-.61.74-1.14.99-.08.99.11,1.51.66ZM194.63,299.61c-.74.34-1.95.6-1.63,1.68.41,1.42.86,3.23,2.37,3.76-.03.85,1.08,1.67.18,2.33-1,.12-1.46-1.29-2.79-.85.94,5.7,5.85,9.61,11.24,9.72,5.47.11,10.95-3.61,11.68-9.35-1.25-.11-1.86.89-3.02,1.08-.72-.99.61-1.92.72-2.86,1.42.49,1.51-.83,1.97-1.9s.02-1.91-1.08-2.39c-.42-.18-.75-.4-1.22-.33-.35.05-.47-.29-.38-.69.05-.77,1.77-1.09,1.63-2.14-1.96-3.62-5.68-5.28-8.84-5.56-5-.45-11.87,2.99-10.82,7.52Z"/>
      <path class="cls-90" d="M215.55,152.66c.19.16.14.53.18.72.73,1.29,1.5,3.16,2.72,4.45,7.68-.06,13.09,5.55,14.18,12.5,1.26.72,3.09.45,4.13.43,19.44-.48,38.95.92,58.11-.58,1.15.5,2.59.63,3.87.58,3.54-.13,7.1.24,10.63-.14.71-.1,1.99.79,2.23-.41,4.6.83,9.58.84,14.18.04.54,1.25,1.61-.21,2.35-.08,3.09,1.27,6.52.64,9.78.64h10.56c1.48,0,3.07-.26,4.53,0,1.75.31,4.17-1.18,5.79,1.26l-26.15.38c-1.69.02-3.38.17-4.61.6h-2.36c-4.04,0-11.84-.53-16.25-.04-.51.06-1,.17-1.51.06-2.47-.54-5.12-.56-7.57,0-.53.12-1.11,0-1.64-.06-8.4-1.03-16.81-.41-25.51-.4l-40.54.02c-.37,6.99-4.98,11.3-10.98,13.31-.58.19-1.75.06-2.2.57-3.06-1.17-6.76-1.26-9.57-3.84-.91-.84-1.86-2.41-2.83-1.47,0-.54-.32-.88-.44-1.68-.09-.58-.91-.42-1.48-.39l-.43-7.86c-.29-5.33.43-10.48.43-15.52h1.51c-.11,2.57-.07,5.17.24,8.24,1.84-3.06,5.15-4.52,8.57-6.2-.16-1.76-1.08-3.31-2-5.12h2.08ZM219.49,162.62c-.48.58-1.41-.66-2.25-.24.41-.16-.12-2.31-.83-2.23-6.36.68-9.98,6.75-9.7,12.57.3,6.12,5.43,11.4,11.93,11.19,1.04-.03,2-.09,2.26-.81.17-.47.29-1.35.06-2.07-.32-1.01-4.61.25-5.34-.5,2.05-1.48,4.79-.52,7.62-.17.28.8-.39,1.85.58,2.56,5.75-2.7,8.13-8.48,6.55-14.33-1.23-4.56-5.44-9.3-11.07-8.56-.8.39.33,2.13.19,2.59Z"/>
      <path class="cls-24" d="M109.29,134.84c-.48,1.01.65,1.18.84,2-.64,0-1.59-.07-1.6.63.71,1.87.58,3.18.64,4.55-.64-.06-1.31.03-1.96.03-.2-1.43.24-3.48-.59-5.25-.75-1.6-3.47-2.29-4.84-2.87-.75-1.13-1.35-2.67-2.69-3.18-.05-2.01-1.24-4.33-2.12-6.37-.4-.93-2-.08-2.6-.14-7.9-.78-23.6.8-32.12-1.05,4.89-2.34,25.77-.03,31.82-.84,1.22-.16,2.9.71,3.27-1.29.1-.53.65-1.04.13-1.51.84.02.56-.91.56-1.51v-3.02c.64,0,1.51.21,1.72-.57.56.27.89.82,1.33,1.22-3.06,18.51,6.71,19.12,5.7,16.35-1.2-3.3-5.81-4.7-4.05-11.78.61-2.45,2.95-4.03,3.84-6.12l1.88-.07c3.67-.14,8.62,0,10.96,4.38,1.56,2.91,1.85,5.67.11,8.48-5.85,9.44-13.1,2.26-10.25,7.96Z"/>
      <path class="cls-80" d="M331.86,90.2c.54,0,1.3.41,2.13.47.46.03.78.98-.02,1.54l-23.93.31c-.78.01-1.85-.45-2.29.55-2.16-1.24-5.18-.94-7.5-.2-.12-.97-1.19-.37-1.69-.49-3.63-.84-6.24.75-8.07,3.77-.41.67-.78.96-1.02,2.32-.49.31-.56-.32-1.17-.67-3.13,3.55-6.65,6.1-9.15,9.65-.72.23-1.22,1.1-1.57,1.55-2.39,1.86-6.4,5.94-8.12,8.26-.29.4-1.15.74-1.07,1.43-1.11-.17-1.39,1.12-2.05,1.59-2.16,1.55-4.04,3.51-5.94,5.78,5.25,6.42,3.83,14.67-1.79,19.7s-14.7,4.34-19.48-1.19-4.58-13.9.26-19.03,13.08-5.77,19.27-1.21c1.93-.96,4.31-2.63,4.49-4.82.09-1.12,1.94-1.28,2.4-2.31.14-.31,1.14.03,1.28-.43.1-.34.26-.61.1-.91-.11,1.43,13.14-11.53,10.61-11.41.54,0,1.26.21,1.51-.38.14-.33-.13-.83.18-1.18,4.46-2.2,7.97-6.59,11.09-10.49.72-.09,1.49-.78,1.7-1.45,2.11-.72,4.3-.34,6.46-.72.4-.07,1.08-.04,1.57.02,2.33.3,4.75.33,7.07-.03.9-.14,2.15.44,2.23-.81.71,1.83,19.33.85,22.52.79ZM245.92,123.68c-6.78,2.39-10.16,9.63-7.61,15.85,2.43,5.91,9.06,9.32,14.88,7.23,6.54-2.35,10.04-8.9,7.99-15.32s-8.78-10.04-15.26-7.76Z"/>
      <path class="cls-50" d="M316.73,246.17l16.74.08c1.02,0,1.86-.06,2.71.14.68.16,1.03.99.59,1.31-.19.14-.49.52-1.18.53l-41.35.39c-1.01-.26-1.67-.04-2.32-.1-6.04-.63-12.2-.45-18.25.02-.9.07-1.49.08-2.01-.04-4.87-1.06-8.73,4.49-11.45,7.65-.77.88-3.79,1.73-3.33,3.41,3.91,6.61,2.71,14.74-3.25,19.14-5.94,4.38-13.96,3.31-18.54-1.81-5.2-5.81-4.5-14.41.73-19.32,5.55-5.21,13.51-5.05,19.33.14,1.71-1.45,3.51-2.78,4.28-4.68,3.09-1.56,4.93-4.14,7.35-6.11,1.41-1.15,3.37-.28,4.72-.65,1.12-.31,1.58-.04,2.39-.04,6.24.03,12.5.21,18.74-.09,1.17-.06,2.32.54,2.47-.45,6.95,1.46,14.47.44,21.62.48ZM243.8,255.67c-6.78.84-11.2,7.21-10.41,13.34.92,7.12,7.07,11.5,13.68,10.5s11.4-7.16,10.2-13.96c-1.08-6.13-6.91-10.7-13.47-9.88Z"/>
      <path class="cls-23" d="M310.04,92.52c2.42,21.52.41,39.79-2.83,60.78-.16,1.05-.06.74.88,1,1.16.31.78-.63,1.15-.92,4.96-3.82,11.7-3.43,15.42,2.15,2.92,4.4,3.75,9.62,3.47,14.66-.74-.13-1.81,1.32-2.35.08-.18-4.33-.6-8.85-3.04-12.97-2.59-4.37-7.32-5.05-11.32-2.21-2.66,1.89-3.61,4.51-7.33,6.48-.37-6.21,1.23-11.77,2.07-17.9,2.36-17.12,3.13-33.81,1.59-50.58.44-1,1.51-.54,2.29-.55Z"/>
      <path class="cls-17" d="M294.25,248.62c-.51,5.87-3.08,11.35-5.57,17.28-1.44,12.52-2.73,24.69-2.85,36.92h-2.29l1.45-29.89c-7.26,11.25-15.64,20.37-24.02,29.78-1.22-.07-2.46.13-3.68.13,15.22-17.02,29.48-30.9,34.65-54.32.65.07,1.31-.15,2.32.1Z"/>
      <path class="cls-5" d="M328.02,173.06c.15,6.56-1.79,12.88-3.38,19.67-2.83,12.07-6.01,23.6-11.66,34.55-3.04,5.89-9.37,12.05-15,8.69-.66-.4-.7.05-1.21.47-.39.31-.25.41-.29.83-.32,2.82-.49,5.72-1.36,8.43-.15.99-1.3.4-2.47.45l2.71-15.61c14.29,17.03,25.25-31.9,27-39.32,1.48-6.3,3.07-12.1,3.3-18.16h2.36Z"/>
      <path class="cls-46" d="M285.82,305.08c.19,10.31.44,20.72,4.02,30.89.32.92,0,1.76-.56,2.24-.73.62-1.99-.92-2.09-1.39-3.01-10.25-3.95-21.05-3.67-31.74h2.3Z"/>
      <path class="cls-61" d="M99.1,130.74l.16,6.17c-1.59-.1-2.25-2.03-2.63-3.86-1.06-5.1-2.19.32-2.24-8.82.59.06,2.2-.79,2.6.14.88,2.05,2.07,4.37,2.12,6.37Z"/>
      <path class="cls-21" d="M100.31,105.19c-.15,1.96.51,4.06.1,6.05-.22,1.09.06,2.28-.64,3.2-.21.78-1.08.57-1.73.57,0-.5.03-1.01,0-1.51-.04-.77.09-1.56-.03-2.32-.3-1.97.37-3.98.33-5.91.66-.05,1.31-.13,1.97-.08Z"/>
      <path class="cls-71" d="M101.79,133.92c.53,1.83-.09,3.75-.75,5.38l-.85.59c-.4-.82-.91-2.01-.93-2.98l-.16-6.17c1.34.51,1.94,2.05,2.69,3.18Z"/>
      <path class="cls-61" d="M97.35,121.04c-.38,1.99-2.05,1.12-3.27,1.29-.36-1.05.7-1.42,1.34-1.31.76.13,1.35-.03,1.93.02Z"/>
      <path class="cls-61" d="M98.03,113.5c-.8.3-1.81-.25-1.49-1.02.2-.5.98-1.41,1.47-1.3.12.76-.01,1.56.03,2.32Z"/>
      <path class="cls-41" d="M107.22,142.05c1.27,8.92,2.04,17.94,4.42,27.24-7.53,6.07-2.33,13.61,1.75,20.04,6.36,10.03-2.9,14.57,11.82,33.35,1.72,2.19,4.09,2.48,6.62,2.44,2.48,12.93,4.62,25.36,3.73,38.51-.33,4.91,1.74,10.24,5.56,13.46,1.79,1.51,4.56,1.19,6.68,2.49,8.92,5.48,18.06,9.27,28.09,11.39-1.33,3.27-7.29,5.01-4.22,9.34.72,1.02,3.22.65,4.3,1.44,1,11.58-5.48,9.69-.97,17.12-15.89-5.81-35.88-28.89-46.06-43.21-8.96-12.6-12.92-27.83-14.62-42.98-.61-5.45-3.77,4.55-10.1.41-8.88-5.8-15.05-31.92-17.77-42.62-1.94-7.61-3.68-14.79-3.06-22.47.39-4.89,1.55-12.1,6.99-14.27,6.96-2.77,10.67,6.93,15.17,7.69-1.65-7.68-1.2-15.99-4.52-22.1.66-1.64,1.28-3.55.75-5.38,1.37.58,4.08,1.27,4.84,2.87.83,1.77.39,3.82.59,5.25ZM99.46,209.6c1.38,2.92,5.67,4.27,8.1,2.38s1.44-5.67-.41-7.97c-7.13-8.82,2.41-9.38-3.42-24.08-1.76-4.43-8.18-22.32-14.64-19.19-1.04.5-2.72,1.76-1.69,3.66,1.61-.92,1.95-2.89,3.2-2.64,5.86,1.21,14.43,23.78,13.86,29.03-1.8,7.09-2.64,9.61,1.82,14.72,1.32,1.52,1.79,4.66-.1,5.54-2.39,1.11-4.17-1.4-6.71-1.46Z"/>
      <path class="cls-7" d="M184.79,143.55l-1.85,1.74c.56-3.78,2.15-7.34,2.53-11.42.91-9.66-3.69-20.78-14.18-24.32-2.54-.86-3.63,1-5.6,1.35l-15.66,2.76c-7.88,1.39-15.73,7.88-17.27,16.36-1.32,7.28.22,14.83,1.33,21.91.99,6.3,6.14,9.91,12.28,10.27,11.38.67,21.59-3.87,30.96-10.15,2.36-1.58,4.49-4.22,5.51-6.05.25-.45,2.66-.07,2.35-1.04-.11-.36.14-.66.19-1.29,2.46-2.3,2.08-5.88,2.87-9.5.36-1.68-1.98-4.05.57-6.14.99,2.88.23,5.32.59,8.15,1.6,12.69-19.21,23.22-29.44,26.33-2.02,5.79-6.97,6.73-12.42,8.3-3.27.95-6.58,4.9-8.98,7.22-2.01,1.94-.41,5.77-2.08,7.86-2.22,2.78-4.33,5.53-3.38,9.73l9.37-1.3c6.14-.85,11.25,2.43,14.67,7.18,7.26,10.11.39,15.59,3.73,18.57,2.27,2.02,9.79-3.24,7.88-1.38l2.08-2.04c.55-.54,2.42,1.09,3.03.69,1.1-.72.6-2.86,1.94-3.46,2.77-1.26,5.36.55,6.79,3.44l2.02-3.32c.77-1.27,2.5-1.56,3.92-.75,2.14,1.22,2.19,3.59,3.37,5.16,1.51-2.16.85-4.96,2.43-5.9,1.78-1.06,3.28-2.21,4.73-1.42,3.41,1.84,3.37,3.12,5.37,7.73,1.29-3.19,2.1-6.95,5.53-7.71,3.98-.87,6.33,3.11,6.55,7.42,1.05-1.38,2.67-7.43,6.64-5.31,1.59.85,1.49,2.8,3.02,4.06,1.38-2.55,3.93-4.79,6.73-3.31,1.37.72,1.01,2.97,2.47,3.42.97-.67,2.37-.68,3.22-.36.55.2.79,1.22,1.41,2.01,2.27-1.01,6.19,3.48,7.99,1.27.43-.53,1.36-1.6.97-2.87-3.14-10.2,3.4-21.46,14.18-23.07,5.1-.76,13.41,2.32,12.85.58-1.98-6.17-5.43-3.72-4.23-13.68-5.79-6.49-3.58-.91-5.65-7.36,1.96.03,1.38,1.93,1.78,2.74,8.63,3.74-.22,6.6,10.18,18.8,5.05.67,9.47-2.81,12.16-6.42,2.51-3.37,11.53-6,8.43-16.02.53.07,1.11.18,1.64.06,1.86,3.69.37,8.51-2.28,12-10.56,13.94,1.71,14.83-13.64,36.94-1.89,2.72-4.55,3.21-7.47,3.04-1.12,7.36-2.75,14.23-3.02,21.2-.82,0-1.28-.27-2.39.04,2.43-12,2.82-21.21,6.91-33.93,1.7-5.28,4.13-9.73,5.49-15.28-1.15-.4-3.53-.27-3.97.81-1.11,2.71-8.57,16.83-9.57,9.33-.84-6.35,1.49-10.2-1.51-10.87-3.42-.76-5.48,11.97-5.98,15.05-1.97,12.18-6.38,24.3-15.93,33.15-3.58.42-7.88.34-11.74.2-1.01-.04-2.71,1.42-3.87.69-.75-.47-1.53-1.15-2.73-2.22-.87,1.8-1.77,3.94-3.69,3.52-2.58-.56-3.23-3.09-4.6-5.61-1.64,1.85-2.01,4.07-4.05,4.14-2.57.09-3.06-2.51-3.92-5.1-1.13,1.6-1.56,4.97-4.14,4.5-2.44-.44-2.77-3.55-3.9-5.39-.7,2.79-1.86,6.29-4.87,5.26-1.99-.67-1.89-3.18-3.14-4.43-.73,2.25-.77,4.85-3.27,5.17s-2.82-2.49-4.62-4.24c-1.37,2.74-2.09,5.94-5.14,5.72-1.72-.12-2.14-2.33-3.24-3.58-1.37,1.37-2.85,3.09-5,2.19-.43-.18-.77-.72-.85-.92-.33-.81-.76.23-1.52.25l-10.5.22-5.51-6.02c-7.37-8.05-8.77-18.87-11.53-29.34-1.15,14.95,3.53,28.5,9.64,41.24-2.12-1.04-2.94-3.41-3.78-5.38-4.02-9.44-6.33-18.94-6.62-29.24-.09-3.16-2.02-5.7-.8-9.19,1.03.45-.47,2.44,1.72,2.41-.68-3.92-1.91-13.51-5.35-13.03-3.76.53.78,8.31-2.64,13.37-7.42-4.06-6.75-15.13-12.25-12.7,1.05,3.08,1.57,5.67,2.71,8.3,5.96,13.77,10.41,39.51,9.4,54.5-.33,4.89.54,9.49,2.96,13.65,1.48,2.54,3.67,2.56,6.16,3.52,4.49,1.74,8.34,4.44,12.51,6.41,9.77,4.62,19.96,6.79,30.53,5.86.07.47.03.93,0,1.4-3.56.3-7.7,1.14-11.46.49-.52,2.64-7.68,6.67-4.57,7.95,3.96,1.63,7.52-1.47,12.23-3.69.17.57,1.04.62.76,1.29l-8.11,4.88c-.54,1.51-.78,4.52-.28,6.01.6,1.77,4.63,1.07,6.11-.26v.75c-1.79,1.14-3.72.52-6.11,1.53-1.46.62-3.08,4.39-2.68,5.94,1.29,4.96,7.81-2.33,12.46-.23,5.27,2.38,2.71,7.59,9.19,7.74,5.73.13,11.5.45,17.16-.27,1.99-.25,2.97-3.24,4-4.64,2.64-3.59,6-4.32,9.82-1.8,1.65,1.09,6.28,1.44,5.84-1.44-.53-3.48-3.18-6.45-2.25-9.83.52.07,1.05-.01,1.57,0-.77,5.28,4.86,8.83,1.74,12.6-3.69,4.46-9.43-2.24-12.99-.58-2.58,1.21-3.77,4.28-4.31,6.55-8.85,1.34-17.98,1.73-26.72-.3.08-2.44-1.6-5.78-4.42-6.41-2.77-.62-4.97,1.75-7.62,2.06-1.12.13-2.79-.99-2.99.41-.34-.08-.92.02-.72-.56-4.51-7.43,1.97-5.54.97-17.12-1.08-.79-3.58-.42-4.3-1.44-3.07-4.33,2.89-6.06,4.22-9.34-10.03-2.11-19.17-5.91-28.09-11.39-2.12-1.3-4.9-.99-6.68-2.49-3.82-3.21-5.89-8.55-5.56-13.46.88-13.15-1.26-25.57-3.73-38.51-2.53.04-4.9-.25-6.62-2.44-14.73-18.78-5.46-23.32-11.82-33.35-4.08-6.43-9.28-13.97-1.75-20.04-2.38-9.3-3.15-18.32-4.42-27.24.65,0,1.31-.09,1.96-.03.36,8.7,2.17,17.39,4,26.43,8.36-3.7,5.11-20.35,6.26-28.04.52-.53.79.48,1.35.25l-.29,18.67c-.1,6.44-3.93,9.16-8.72,12.59-4.54,3.24-1.47,11.03,2.41,13.4,1.74,1.07,2.97,1.66,4.02,3.2,2.84,4.19,8.45,8.38,13.75,6.56-.25-4.23,2.87-8.25,4.02-11.44,1.27-3.51.42-6.06,4.4-8.49,2.29-1.39,4.15-4.86,7.61-5.51,4.11-.76,8.82-1.68,10.35-6.63-10.37,1.99-23.54,1.69-25.96-10.86-1.24-6.42-1.73-12.96-1.63-19.81.01-.81-.16-1.33-1.04-1.51v-.83l1.25-.14c7.85-.9-15.39-7.95,33.34-20.44,3.29-.84,5.99-2.46,10.03-.51,7.1,3.42,11.05,10.6,12.44,18.43.99,5.57-.52,10.91-1.98,16.2ZM130.95,222.62c-.53-9.82-6.87-18.13-7.78-27.07l-7.14-5.8c1.86,4.4,1.38,8.33,1.79,12.76.64,6.99,4.23,13.26,8.22,18.68.99,1.35,4.21,3.07,4.91,1.44ZM277.51,222.89c7.09,2.19,13.27-15.98,13.63-21.08.31-4.43-.09-8.23,1.96-12.41l-7.45,6.22c-.73,8.53-7,17.3-8.14,27.27ZM158.84,226.12c2.59-5.62-1.83-4.86-.52-10.12,2.4-9.61-4.43-19.65-14.46-19.94,3.84,10.86,3.63,19.5,7.68,29.01,2.64.18,4.99,1.39,7.3,1.05ZM257.17,224.8c2.42-3.44,2.58-7.63,3.39-11.25,1.32-5.9,2.42-11.71,4.43-17.62-8.39.4-14.73,7.55-15,15.56-.1,2.87,1.37,5.58.19,8.42-.75,1.82-1.87,4.69.06,6.22,1.53.21,5.08-.42,6.92-1.34ZM136.67,197.09c-2.81.17-4.04.21-5.85.82,1.24,3.63,3.18,6.23,5.63,9.07.77-3.54.44-6.46.22-9.89ZM277.94,197.86c-2.24-.62-3.56-.57-5.77-.68,0,3.31-.68,5.88.39,9.55,2.49-2.81,4.3-5.28,5.38-8.87ZM203.69,228.32c-.26-5.14-.92-9.78-2.6-14.25-.65-1.71-2.38-1.9-3.85-1.8-4.04.29-5.38,11.85-5.17,16.15,3.77,1.63,7.85,1.51,11.62-.1ZM216.56,228.06c.26-4.75-.5-15.66-5.75-15.83-4.95-.16-5.67,12.26-5.31,16.37,3.13.74,8.84,2.18,11.06-.54ZM190.01,228.13c1.99-3.84,1.89-14.08-3.53-13.87-3.17,3.18-4.58,9.28-3.13,13.87.61,1.92,5.81,1.63,6.66,0ZM218.67,228.27c1.41,1.07,5.9,2.22,6.73-.03,1.58-4.3,0-11.29-3.56-14.29-6.12,1.57-4.16,13.58-3.17,14.32ZM181.97,218.91c-.18-2.04-3.9-5.62-5.43-3.5-2.35,3.27-2.47,16.72,1.48,15.6,4.39-1.24,4.24-8.85,3.95-12.1ZM232.31,230.49c2.13-3.83,2.45-11.13-.13-14.99-1.59-2.39-5.14,1.54-5.31,3.5-1.07,12.66,4.77,12.69,5.44,11.49ZM173.85,221.36c.28-1.16-.3-2.02-.67-2.52s-2.27-1.41-2.68-.41c-2.1,5.2-.57,15.76,3.32,12.96,2.06-1.48-1.14-5.19.02-10.04ZM238.16,218.48c-.48-1.04-3.1.13-3.04,1.26.41,7.43-1.93,10.94.46,11.85,3.8,1.46,4.64-8.64,2.58-13.11ZM168.31,220.87c-2.59-3.17-3.39,10.23.53,11.54.9-1.23-.72-11.77-.53-11.54ZM240.44,220.88c-.04.06-1.14,9.96-.63,11.3,4.2-.88,3.41-14.93.63-11.3ZM166.45,232.61c-1.46-3.96-1.43-7.38-1.22-11.31-2.17-1.21-3.12,12.35,1.22,11.31ZM244.11,220.78c-1.16,4.16.32,7.93-1.67,11.31,3.72,3.43,3.34-11.29,1.67-11.31ZM162.96,232.01c-.31-3.65-1.18-6.72-.4-10.33-2.55-.24-2.76,12.8.4,10.33ZM246.57,222.1c.51,3.75-.68,6.91-.83,10.76,3.21,1.68,3.09-12.52.83-10.76ZM161.51,233.35c-2.25-1.07-1.51-3.13-2.44-4.39-1.1-1.49-4.04-1.4-6.48-1.65,1.3,4.59,3.79,8.56,7.03,12.15l1.89-6.11ZM249.39,239.37c3.4-4.02,5.35-7.6,6.87-11.96-1.82.03-5.53-.08-6.27,1.61-2.69,6.1-2.76,4.78-.6,10.35ZM194.33,230.76c-1.12-1.82-6-.67-6.34,1.1-.66,3.43,2.79,13.07,5.43,11.84,2.89-1.35,2.73-9.96.91-12.94ZM221.07,232.43c.16-2.05-5.22-3.52-6.52-1.58-2.31,3.47-1.49,13.7,1.49,12.93,2.54-.66,4.82-8.73,5.02-11.35ZM183.53,245.91c4.33-3.52,4.64-8.18,3.2-12.44.18-2.42-1.54-2.82-3.14-2.86-6.58-.15-2.77,12.8-.06,15.3ZM203.26,230.41c-2.8.42-4.82.11-7.11.73.39,3.79.89,11.09,4.09,12.11,2.62.84,3.99-11.01,3.02-12.84ZM212.64,231.12c-2.36-.65-4.54-.55-7.24-.43-.04,4.3-.07,8.76,2.35,12.34s5.33-10.35,4.89-11.92ZM226.68,244.53c1.12-2.81,4.13-13.12-.06-13.81-2.09-.34-4.05-.31-4.47,1.82-.9,4.58-1.51,8.47,1.91,12.29.72.81,2.22.72,2.62-.3ZM177.79,232.65c-.73-.04-2.09-.7-3.05-.13-1.37,3.93-1.09,8.35,1.1,12.18,1.67-.71,3.03-1.68,3.45-2.79.29-.77.11-9.17-1.49-9.26ZM232.91,244.48c2.26-2.82,2.73-8.18,1.25-11.55-.62-1.41-2.39-.34-3.24-.2-1.62.28-1.63,8.66-1.49,9.15.3,1.04,1.79,2.41,3.48,2.6ZM171.7,232.98c-3.11-.41-2.75,7.14-.61,10.37.45.68,1.61-.07,1.85-.5,0-.01.53-9.63-1.24-9.87ZM238.86,234.3c-.34-1.35-1.7-1.43-2.26-1.09s-1.62,9.05-.33,10.15c2.13,1.81,3.79-4.24,2.59-9.06ZM163.84,243.59c2.31-1-1.26-3.34.57-9.47.03-.75-2.15-.12-2.42.89-.96,3.49-.31,9.51,1.86,8.58ZM168.28,233.87c-.02-.97-2.52.37-2.74,1.41-.66,3.06-.43,9.47,2.32,8.5,2.46-.86.57-3.12.43-9.91ZM240.94,233.32c-1.16,2.17.07,4.57-.8,6.89-.47,1.24-.8,2.46.39,3.32.49.36,1.15.52,1.92-.15,1.19-1.05,2.72-8.96-1.5-10.06ZM246.59,242.73c1.05-2.55,1.14-8.19-1.05-8.63-.27-.05-1.22.19-1.06.71,1.5,5.15-2.12,11.5,2.12,7.91Z"/>
      <path class="cls-54" d="M254.11,305.09c-9.8,10.25-22.7,16.45-36.64,18.56.54-2.27,1.73-5.34,4.31-6.55,3.56-1.66,9.3,5.04,12.99.58,3.12-3.77-2.51-7.32-1.74-12.6h21.08Z"/>
      <path class="cls-66" d="M190.75,323.36c-5.04-1.17-10.19-1.92-15.03-3.94.2-1.4,1.86-.28,2.99-.41,2.65-.31,4.85-2.68,7.62-2.06,2.82.63,4.5,3.97,4.42,6.41Z"/>
      <path class="cls-42" d="M307.12,90.22c-2.32.37-4.74.34-7.07.03-1.33-6.17-1.54-12.6-3.84-18.9-10.66-29.18-35.41-50.99-65.38-59.04-13.86-3.72-27.19-4.72-40.97-2.58-28.25,4.39-52.84,19.8-68.54,44.16-5.14,7.97-8.83,15.7-10.47,24.83-1.48,8.22-3.16,16.25-3.43,24.32-.06,1.79-.54,4.4-.89,6.16-1.37,1.58-3.9,1.94-5.12,3.67-.59-.96-.18-1.73-1-1.63.41-1.98-.25-4.08-.1-6.05,1.04-13.28,2.6-26.17,7.37-39.22,8.61-23.6,25.26-42.01,47.97-52.63,32.17-15.05,70.42-14.5,102.2,2.24,29.18,15.37,45.32,43.55,49.28,74.64Z"/>
      <path class="cls-19" d="M291.92,248.52c-5.17,23.42-19.43,37.31-34.65,54.32l-24.31-.06c-.58-2.54,3.16-.55,4.47-2.8,2.48-4.26-2.64-5.51-4.68-9.01,3.99-.71,7.37-2.36,10.77-3.32,6.4-1.81,12.62-4.55,18.12-8.36,16.24-2.89,9.72-19.58,12.03-30.76,6.05-.47,12.21-.64,18.25-.02Z"/>
      <path class="cls-8" d="M231.46,305.1c-.92,3.39,1.72,6.35,2.25,9.83.44,2.88-4.19,2.54-5.84,1.44-3.82-2.52-7.18-1.79-9.82,1.8-1.03,1.4-2.01,4.39-4,4.64-5.66.72-11.43.4-17.16.27-6.48-.15-3.92-5.36-9.19-7.74-4.65-2.1-11.17,5.2-12.46.23-.4-1.55,1.22-5.32,2.68-5.94,2.38-1.01,4.31-.39,6.11-1.53l3.7-2.35c.33,5.92,4.45,11.11,9.52,13.39,5.68,2.55,11.57,2.26,16.71-1.45,4.28-3.09,7.29-7.5,7.19-12.54,2.58.12,7.53-.42,10.31-.06Z"/>
      <path class="cls-112" d="M283.53,302.82c-7.52,0-15.07.32-22.57-.11,8.38-9.42,16.77-18.53,24.02-29.78l-1.45,29.89Z"/>
      <path class="cls-79" d="M212.66,299.8c-.09.4.03.74.38.69.46-.07.8.15,1.22.33-1.62,1.01-.71,2.71-.89,4.29-.11.95-1.43,1.87-.72,2.86-1.74,3.03-5.09,5.44-8.63,5.32s-6.73-2.73-8.48-5.91c.9-.66-.21-1.49-.18-2.33.04-.95.38-2.11-.12-3.19-.31-.66-1.53-.54-2.25-.57-.32-1.08.9-1.34,1.63-1.68.52-.24,1.5.23,2.07-.09,2.18-2.96,4.87-4.6,8.87-4.34,2.56.17,4.73,2.67,7.1,4.62Z"/>
      <path class="cls-48" d="M221.14,305.15c.09,5.04-2.91,9.45-7.19,12.54-5.14,3.71-11.03,4-16.71,1.45-5.07-2.28-9.19-7.47-9.52-13.39-.54-.43,1.36-3.83,2.57-2.55.37,7.66,5.08,13.87,12.28,14.69,7.6.86,14.3-4.2,15.7-12.2.21-1.19,2.16-.57,2.88-.54Z"/>
      <path class="cls-110" d="M206.65,289.25c.16.53-.46.68-.74,1.14-.35.57-.51.21-.97-.17-4.85-.75-9.03,2.69-12.33,5.87-2.18-1.36-4.82-1.7-7.06-.65-4.71,2.22-8.28,5.32-12.23,3.69-3.11-1.28,4.05-5.31,4.57-7.95,3.76.65,7.9-.19,11.46-.49l17.3-1.44Z"/>
      <path class="cls-91" d="M220.16,290.68c3.08,1.29,7.06.2,10.56.61,2.41,4.17,6.29,4.85,5.13,7.34-1.01,2.17-6.09.55-8.58-1.34-1.38-1.05-2.99-1.02-4.17-1.68-2.11-1.17-4.51-.48-6.83,1-2-3.2-5.83-4.34-8.12-6.71,3.79-.53,8.37,1.84,12,.78Z"/>
      <path class="cls-76" d="M242.01,286.94c.54.24,1.34.06,1.51.72-3.39.96-6.78,2.61-10.77,3.32,2.04,3.5,7.16,4.75,4.68,9.01-1.31,2.25-5.05.26-4.47,2.8-.68,0-1.56-.22-2.21-.01.89-1.58-6.03-4.64-6.87-4.96-.52-.2-.99-.62-1.35-1.04-.18-.51.39-.73.56-1.16,1.18.66,2.79.63,4.17,1.68,2.49,1.89,7.57,3.51,8.58,1.34,1.16-2.49-2.72-3.17-5.13-7.34-3.5-.41-7.48.68-10.56-.61-.3-.76,1.02-.62.82-1.37,6.1.44,12.16-.26,18.08-1.69.88-.21,2.19-.33,2.95-.68Z"/>
      <path class="cls-14" d="M184.02,307.35c-1.48,1.33-5.51,2.03-6.11.26-.5-1.49-.26-4.5.28-6.01l8.11-4.88c1.51.46,3.77-.78,4.8,1.43.67,1.43-6.2,8.39-7.09,9.2Z"/>
      <path class="cls-55" d="M195.54,307.38c1.75,3.18,4.89,5.78,8.48,5.91s6.89-2.29,8.63-5.32c1.16-.18,1.77-1.19,3.02-1.08-.73,5.74-6.21,9.46-11.68,9.35-5.39-.11-10.3-4.02-11.24-9.72,1.33-.44,1.78.97,2.79.85Z"/>
      <path class="cls-33" d="M212.66,299.8c-2.37-1.95-4.54-4.45-7.1-4.62-4-.26-6.68,1.39-8.87,4.34-.57.32-1.55-.16-2.07.09-1.05-4.53,5.82-7.97,10.82-7.52,3.16.29,6.88,1.95,8.84,5.56.15,1.05-1.58,1.38-1.63,2.14Z"/>
      <path class="cls-35" d="M212.77,288.32c1.55.19,2.96.52,4.53.47,1.21-.03,2.45.43,3.68.52.2.75-1.13.61-.82,1.37-3.63,1.06-8.21-1.31-12-.78-.52-.54-.52-.74-1.51-.66l-17.3,1.44c.03-.47.06-.94,0-1.4.65-.06,1-.6,1.66-.5,1.7.23,3.4-.25,5.1-.48,5.57-.73,11.09-.66,16.67.02Z"/>
      <path class="cls-6" d="M222.54,296.78c.36.42.83.84,1.35,1.04-.09,1.67.05,3.34.2,5-2.79.49-6.03-2.02-5.8-5.04.68-1.21,3.24-.57,4.25-.99Z"/>
      <path class="cls-3" d="M230.76,302.77c-2.16.7-4.51-.34-6.67.04-.14-1.66-.29-3.33-.2-5,.84.32,7.76,3.38,6.87,4.96Z"/>
      <path class="cls-2" d="M213.37,305.11c.18-1.58-.74-3.29.89-4.29,1.1.48,1.55,1.3,1.08,2.39s-.55,2.39-1.97,1.9Z"/>
      <path class="cls-47" d="M195.36,305.04c-1.51-.53-1.96-2.34-2.37-3.76.72.03,1.94-.1,2.25.57.5,1.08.16,2.24.12,3.19Z"/>
      <path class="cls-40" d="M285.96,56.94c-1.04,1.62.79,3.52,1.24,5.17.93,3.43,1.63,6.61,2.73,9.9.96,2.87,1.84,5.06.47,8.38-2.26,5.46.81,5.05-.08,12.01-3.11,3.91-6.63,8.3-11.09,10.49-.03-4.87,1.28-8.23,2.78-14.16-2.49,1.59-4.17,11.92-4.47,15.71,2.53-.12-10.72,12.84-10.61,11.41-7.57-6.42-16.02-3.91-25.13-7.38-9.95-3.79-22.55,12.69-19.52,26.89l2.03,9.53c-8.55-9.36,1.77-15.18-8.95-19.09-.47-.4-.16-2.03-.39-2.85-.16-.56-1.35-.75-2.64-.53-1.46-4.91-5.19-2.94-7.59-3.55-3.82-.97-5.9.07-8.82,3.16-1,1.05-2.9,2.1-2.03,4.13-1.54.79-3.05.44-4.28,1.82,1.6,1.34,2.52-.59,4.46-.31,1.8,2.31,1.59,5.59.55,8.39-1.93,5.2-.27,10.91-1.79,15.82l-7.01,22.71c-1.45,4.71-.52,10.09,3.11,14.01,2.46,2.65,6.86,3.32,10.12,1.76,3.82-1.82,4.46-7.31,4.48-11.24l.13-36.22c0-.74.7-1.32,1.48-1.48v14.33c0,5.04-.73,10.19-.44,15.52l.43,7.86c.09,1.72.61,4.1.94,6.14.57,3.55,4.37,6.04,7.65,5.8s7.16-1.7,7.91-5.12c6-2.01,10.61-6.32,10.98-13.31l40.54-.02c8.7,0,17.11-.63,25.51.4,3.1,10.02-5.92,12.65-8.43,16.02-2.69,3.62-7.11,7.09-12.16,6.42-10.4-12.2-1.55-15.06-10.18-18.8-.4-.81.18-2.71-1.78-2.74,2.07,6.45-.13.87,5.65,7.36-1.2,9.96,2.24,7.51,4.23,13.68.56,1.74-7.75-1.34-12.85-.58-10.78,1.61-17.32,12.87-14.18,23.07.39,1.28-.53,2.34-.97,2.87-1.8,2.21-5.72-2.28-7.99-1.27-.62-.78-.86-1.8-1.41-2.01-.86-.31-2.26-.31-3.22.36-1.46-.45-1.1-2.7-2.47-3.42-2.81-1.48-5.36.76-6.73,3.31-1.54-1.27-1.44-3.21-3.02-4.06-3.97-2.12-5.59,3.94-6.64,5.31-.22-4.31-2.56-8.3-6.55-7.42-3.43.75-4.24,4.51-5.53,7.71-2-4.6-1.96-5.88-5.37-7.73-1.46-.79-2.95.37-4.73,1.42-1.58.94-.92,3.74-2.43,5.9-1.18-1.57-1.22-3.94-3.37-5.16-1.42-.81-3.15-.52-3.92.75l-2.02,3.32c-1.43-2.89-4.01-4.69-6.79-3.44-1.34.6-.84,2.74-1.94,3.46-.61.4-2.48-1.23-3.03-.69l-2.08,2.04c1.9-1.87-5.61,3.39-7.88,1.38-3.35-2.98,3.53-8.46-3.73-18.57-3.42-4.75-8.53-8.03-14.67-7.18l-9.37,1.3c-.95-4.2,1.16-6.94,3.38-9.73,1.66-2.09.07-5.91,2.08-7.86,2.4-2.33,5.72-6.28,8.98-7.22,5.45-1.58,10.4-2.51,12.42-8.3,10.23-3.11,31.04-13.65,29.44-26.33-.36-2.84.4-5.27-.59-8.15-2.55,2.08-.21,4.46-.57,6.14-.79,3.62-.4,7.2-2.87,9.5-.22.05-.42,0-.61-.11,1.47-5.29,2.97-10.63,1.98-16.2-1.39-7.83-5.34-15.01-12.44-18.43-4.05-1.95-6.74-.33-10.03.51-48.73,12.48-25.48,19.54-33.34,20.44l-1.25.14c-1-.57.04-2.43-.93-3.19l-2.58-2.01c-.93-.72,2.3-9.64,3.05-11.85,1.41-4.13,2.84-8.7,1.53-13.32-1.07-3.79-.73-8.51-4.29-10.85,3.54,8.38,4.08,16.2,1.82,24.06-.62,2.15-2.83,4.08-2.85,7.01-2.9-8.07-8.86-11.86-16.95-10.94.83-2.86-.12-4.39.12-5.92,2.73-16.85,3.55-33.01,13.8-47.29,1.34-.38-3.34,13.53-3.77,14.77-4.21,12.19,1.12,7.1-.7,16.97-1.16,6.33.95,13.03,3.97,18.62.31-1.9-3.8-12.63-3.46-14.32,1.13-5.7.83-10.62-.75-15.9l2.82-9c2.02-6.45,3.35-13.34,7.63-19.08,21.38-28.69,59.27-42.46,94.34-35.61,20.06,3.92,37.68,13.24,51.75,27.68,5.08,5.22,8.89,10.65,11.68,17.09Z"/>
      <path class="cls-54" d="M307.89,173.08l-3.36,9.04c-4.71,12.67,3.86,13.48-2.4,21.62-1.64,2.14-3.33,5.33-.99,7.96,1.99,2.23,7.34.8,8.25-2.2-2.29.09-4.6,3.2-6.72,1.8-2.51-1.66-.59-5.39,1.05-7.16,5.82-6.28-1.6-9.07,2.06-20.7,1.14-3.63,2.83-6.93,3.62-10.42,4.41-.49,12.21.03,16.25.04-.23,6.07-1.82,11.86-3.3,18.16-1.74,7.41-12.7,56.35-27,39.32l-2.71,15.61c-6.24.3-12.49.12-18.74.09.27-6.96,1.9-13.84,3.02-21.2,2.92.17,5.58-.32,7.47-3.04,15.35-22.11,3.08-23,13.64-36.94,2.65-3.5,4.14-8.31,2.28-12,2.46-.55,5.1-.53,7.57,0Z"/>
      <path class="cls-13" d="M294.87,170.19c-19.16,1.5-38.66.1-58.11.58,2.31-9.32-11.74-20.66-21.04-17.38-.04-.2,0-.56-.18-.72-.05-3.33,1.06-7.35.25-10.53l-1.77-6.89c-.6-2.34-1.43-6.33.97-7.8,1.27-.78,2.94.46,3.6,1.06,2.62,2.37-3.29,11.17,6.62,20.71,6.81,6.55,15.34,9.39,23.37,14.03,3.69,2.14,6.03,8.55,12.74,6.34-2.56-1.03-10.71-2.16-10.54-6.83,6.35,1.57,12.09,1.79,17.53-.39,10.99-4.4,8.69-19.75,10.28-31.4-.42,3.08,1.89-5.05,3.9-4.75.79.12.87,1.48,1.12,2.25l4.11,12.39.89,19.31c.21,4.54,2.65,8.06,6.27,10.02Z"/>
      <path class="cls-51" d="M300.25,92.86c4.08,24.8,2.44,50.71-2.69,75.86-.23,1.14,1.18,1.12,1.18,2.05-1.28.05-2.72-.08-3.87-.58-3.62-1.95-6.06-5.48-6.27-10.02l-.89-19.31-4.11-12.39c-.25-.77-.34-2.13-1.12-2.25-2.01-.3-4.32,7.83-3.9,4.75-1.59,11.65.71,27-10.28,31.4-5.44,2.18-11.18,1.96-17.53.39-.16,4.67,7.99,5.81,10.54,6.83-6.71,2.21-9.05-4.21-12.74-6.34-8.02-4.64-16.56-7.48-23.37-14.03-9.9-9.54-4-18.34-6.62-20.71-.66-.6-2.32-1.84-3.6-1.06-2.39,1.47-1.56,5.46-.97,7.8l1.77,6.89c.82,3.18-.3,7.2-.25,10.53h-2.08c-1.91-3.66-2.76-7.93-6.02-11.67-1.5,5.11-.57,9.76-.79,14.74h-1.51v-14.33c-.77.16-1.47.74-1.47,1.48l-.13,36.22c-.01,3.93-.66,9.42-4.48,11.24-3.26,1.56-7.66.89-10.12-1.76-3.63-3.92-4.57-9.3-3.11-14.01l7.01-22.71c1.52-4.91-.14-10.62,1.79-15.82,1.04-2.8,1.25-6.08-.55-8.39-1.94-.28-2.85,1.65-4.46.31,1.23-1.38,2.74-1.02,4.28-1.82-.87-2.03,1.03-3.08,2.03-4.13,2.92-3.09,5-4.13,8.82-3.16,2.4.61,6.13-1.35,7.59,3.55,1.28-.22,2.48-.02,2.64.53.23.82-.09,2.46.39,2.85,10.73,3.91.4,9.73,8.95,19.09l-2.03-9.53c-3.03-14.2,9.57-30.68,19.52-26.89,9.11,3.47,17.56.96,25.13,7.38.16.3,0,.58-.1.91-.14.47-1.14.12-1.28.43-3.22-4.65-17.48-5.11-21.89-6.44-3.09-.93-4.81-2.42-8.5-.37-13.69,7.61-13.81,25.37-7.41,38.57,9.26,8.08,28.94,17.74,41.38,11.13,7.42-3.94,6.69-17.05,7.25-25.48.44-6.71-2.87-12.41-8.01-15.93-.08-.69.77-1.03,1.07-1.43,4.47,3.05,7.49,7.6,8.97,13.25,1.87-1.23.92-3.17,2.11-4.2.77-.67,2.25-.98,2.29-2.14.09-2.56-3.94-12.61-5.25-15.17.35-.44.85-1.32,1.57-1.55.87,3.81,2.89,7.33,4.34,11.25,1.88,5.08,1.35,10.24,3.95,14.46,5.16,8.36-2.02,31.24,8.29,34.97,2.8-11.68,4.09-23.04,4.75-35.05.36-6.5.96-13.58-.11-19.84-12.62-6.04-6.22,13.17-12.94,19.92,1.52-5.13,4.23-10.81,2.42-16.5-.55-1.74-2.08-4.01-2.05-5.83-5.93-2.6.45-5.6,1.65-12.37.24-1.35.62-1.64,1.02-2.32.96,6.17-7.49,12.6-1.85,13.82,1.59,1.53-.04,3.96,2.16,5.36,1.85-2.4,3.11-4.04,5.7-4.82.71,1.87,3.85,2.16,3.92.76.16-3.08-.9-16.85-1.87-18.89.5.12,1.58-.49,1.69.49ZM204.14,139.69c-.93-4.17-.2-7.11-.05-10.4.13-2.8-1.25-5.64-.06-8.75.43-1.13-2.49-1.18-3.53-1.1-1.25.09-1.63,1.7-2.75,2.35-1.68.97-2.74,1.11-3.05,2.67-.37,1.87.4,2.7,1.12,4.5,1.92,4.84-3.66,15.21-1.66,21.64,2.75-4.69,3.37-12.91,9.98-10.9ZM214.82,149.8c.46-9.02.19-6.32-1.72-14.08-1.93-7.82,2.69-9.52.61-12.2-.48-.62-1.84-.89-2.53-1.68-1.5-1.72-2.09-2.9-4.2-2.41-4.74,1.11-.45,9.15-2.32,13.27-.83,1.82.63,4.16.47,6.52,7.59-.15,5.72,7.05,9.69,10.58ZM201.44,180.55c.12-1.59,1.16-3.16.87-5.23-.61-4.35.72-12.25-1.01-11.3.76-.78.93-3.3.93-4.46l-.02-15.93c0-.63-.35-1.63-.66-1.93-.28-.27-1.07-.06-1.71.56-4.87,10.32-9.3,20.46-12.15,31.52-.95,3.67-.82,7.11.41,10.46,1.47,4,6.01,6.37,9.98,4.46,3.4-1.63,3.15-5.19,3.37-8.16Z"/>
      <path class="cls-57" d="M307.75,93.06c1.53,16.78.76,33.47-1.59,50.58-.84,6.12-2.44,11.69-2.07,17.9,3.72-1.97,4.67-4.59,7.33-6.48,4-2.84,8.73-2.15,11.32,2.21,2.45,4.12,2.86,8.64,3.04,12.97-4.6.8-9.58.8-14.18-.04,1.13-3.36,3.29-6.91,6.6-8.69l3.72,2.82c.4-2.36-1.42-3.43-2.58-3.79-4.76-1.48-8.15,6.75-9.96,10.07-3.53.38-7.09,0-10.63.14,0-.92-1.41-.9-1.18-2.05,5.13-25.15,6.77-51.06,2.69-75.86,2.32-.74,5.34-1.04,7.5.2Z"/>
      <path class="cls-24" d="M219.49,162.62c3.79.85,7.43,3.54,8.17,7.12.9,4.36-1.48,7.89-4.42,10.61-2.83-.35-5.57-1.31-7.62.17-4.26-1.83-6.5-5.43-6.03-9.86.43-4.05,3.9-6.44,7.65-8.29.84-.42,1.77.82,2.25.24Z"/>
      <path class="cls-45" d="M236.76,170.77c-1.04.03-2.87.29-4.13-.43-1.09-6.95-6.5-12.55-14.18-12.5-1.22-1.3-1.99-3.17-2.72-4.45,9.3-3.28,23.34,8.06,21.04,17.38Z"/>
      <path class="cls-12" d="M213.47,152.66c.91,1.81,1.84,3.36,2,5.12-3.42,1.68-6.73,3.14-8.57,6.2-.31-3.07-.36-5.67-.24-8.24.22-4.99-.7-9.64.79-14.74,3.26,3.73,4.11,8.01,6.02,11.66Z"/>
      <path class="cls-114" d="M217.24,162.38c-3.75,1.85-7.22,4.24-7.65,8.29-.47,4.43,1.77,8.03,6.03,9.86.73.76,5.02-.51,5.34.5.23.72.11,1.6-.06,2.07-.26.72-1.21.78-2.26.81-6.5.21-11.63-5.08-11.93-11.19s3.34-11.89,9.7-12.57c.7-.08,1.23,2.07.83,2.23Z"/>
      <path class="cls-119" d="M223.24,180.36c2.94-2.72,5.32-6.25,4.42-10.61-.74-3.59-4.38-6.28-8.17-7.12.14-.46-.99-2.2-.19-2.59,5.62-.74,9.83,4,11.07,8.56,1.58,5.84-.8,11.62-6.55,14.33-.97-.71-.3-1.76-.58-2.56Z"/>
      <path class="cls-120" d="M309.41,173.02c-.78,3.49-2.47,6.79-3.62,10.42-3.66,11.63,3.76,14.43-2.06,20.7-1.64,1.77-3.56,5.5-1.05,7.16,2.11,1.4,4.42-1.71,6.72-1.8-.91,3-6.26,4.42-8.25,2.2-2.35-2.63-.66-5.83.99-7.96,6.26-8.14-2.31-8.95,2.4-21.62l3.36-9.04c.51.11,1,0,1.51-.06Z"/>
      <path class="cls-53" d="M219.45,186.51c-1.62,2.61-5.65,3.47-8.85,1.95-2.26-1.07-3.53-4.46-3.54-7.26.96-.94,1.92.63,2.83,1.47,2.81,2.58,6.51,2.67,9.57,3.84Z"/>
      <path class="cls-107" d="M207.06,181.2c.01,2.8,1.28,6.19,3.54,7.26,3.2,1.52,7.24.66,8.85-1.95.45-.52,1.62-.38,2.2-.57-.76,3.42-4.64,4.88-7.91,5.12s-7.08-2.25-7.65-5.8c-.33-2.04-.84-4.42-.94-6.14.57-.03,1.39-.19,1.48.39.12.8.43,1.14.44,1.68Z"/>
      <path class="cls-93" d="M311.59,170.22c-.24,1.21-1.52.31-2.23.41,1.81-3.33,5.2-11.55,9.96-10.07,1.16.36,2.98,1.43,2.58,3.79l-3.72-2.82c-3.32,1.78-5.47,5.34-6.6,8.69Z"/>
      <path class="cls-15" d="M119.44,140.41c-1.15,7.69,2.09,24.33-6.26,28.04-1.83-9.04-3.64-17.73-4-26.43-.06-1.37.07-2.68-.64-4.55,0-.7.96-.63,1.6-.63,3.7.28,6.93-1,10.42-3.14.25,2.87-.81,4.69-1.11,6.71Z"/>
      <path class="cls-115" d="M108.64,103c-.25,1.52.71,3.06-.12,5.92,8.09-.92,14.05,2.88,16.95,10.94.02-2.93,2.23-4.87,2.85-7.01.32,0,.62.32.94.11-.75,2.21-3.98,11.13-3.05,11.85l2.58,2.01c.97.76-.07,2.62.93,3.19v.83c-1.32-.22-1.42-1.61-1.74-2.72-.32-.75-.91-1.43-2.39-1.93-.43,5.41-4.72,9.75-4.8,14.46-.55.24-.83-.77-1.35-.25.3-2.01,1.36-3.84,1.11-6.71-3.49,2.14-6.72,3.41-10.42,3.14-.19-.82-1.32-.99-.84-2,3.96.71,8.33-.66,11.38-3.99,5.03-5.49,3.12-14.31-2.67-18.54-2.12-1.55-3.82-.68-5.42-.95-1.27-.22-2.01-1.61-3.27-.45-.79.73-.83,2-.84,3.12l-1.88.07c.38-.48.59-1.07.27-1.64-.42-.74-1.23-.33-1.93.22l-3.82,2.97c-.45-.4-.78-.95-1.33-1.22.71-.91.42-2.11.64-3.2.82-.1.41.67,1,1.63,1.22-1.74,3.75-2.09,5.12-3.67.35-1.76.83-4.38.89-6.16.41,0,.82.03,1.23-.03Z"/>
      <path class="cls-59" d="M109.29,134.84c-2.85-5.7,4.4,1.48,10.25-7.96,1.74-2.81,1.44-5.57-.11-8.48-2.34-4.37-7.29-4.52-10.96-4.38,0-1.12.05-2.39.84-3.12,1.26-1.16,2,.24,3.27.45,1.6.27,3.3-.59,5.42.95,5.79,4.23,7.7,13.05,2.67,18.54-3.05,3.33-7.42,4.7-11.38,3.99Z"/>
      <path class="cls-10" d="M106.58,114.09c-.89,2.09-3.23,3.67-3.84,6.12-1.76,7.08,2.85,8.48,4.05,11.78,1.01,2.77-8.75,2.16-5.7-16.35l3.82-2.97c.7-.55,1.51-.97,1.93-.22.32.57.12,1.16-.27,1.64Z"/>
      <path class="cls-29" d="M265.55,117.21c-.46,1.03-2.31,1.19-2.4,2.31-1.62.83-2.83-.46-4.37-1.38-3.51-2.1-12.41-2.17-15.05-1.27-7.19,2.45-12.88,9.78-13.26,16.48-.57,10.05,5.34,17.89,14.58,20.46,4.67,1.3,8.94,1.81,13.86-.57,4.03-1.95,8.24-6.45,9.42-11.22.86-3.47.08-7.92-.1-11.88-.15-3.33-4.61-5.23-1.9-9.86.66-.47.94-1.76,2.05-1.59,5.14,3.52,8.45,9.22,8.01,15.93-.56,8.43.17,21.54-7.25,25.48-12.45,6.61-32.13-3.05-41.38-11.13-6.4-13.2-6.28-30.96,7.41-38.57,3.69-2.05,5.41-.56,8.5.37,4.41,1.33,18.67,1.79,21.89,6.44Z"/>
      <path class="cls-38" d="M300.05,90.25c-.49-.06-1.17-.09-1.57-.02l-1.6-8.44c-1.85-9.72-5.1-18.67-10.72-26.41-.32.91.25.87-.2,1.56-2.79-6.43-6.6-11.87-11.68-17.09-14.07-14.44-31.69-23.76-51.75-27.68-35.07-6.85-72.96,6.92-94.34,35.61-4.28,5.74-5.61,12.63-7.63,19.08l-2.82,9c1.58,5.28,1.89,10.2.75,15.9-.34,1.69,3.77,12.41,3.46,14.32-3.02-5.59-5.13-12.29-3.97-18.62,1.82-9.87-3.51-4.78.7-16.97.43-1.24,5.11-15.16,3.77-14.77-10.25,14.28-11.07,30.44-13.8,47.29-.41.07-.82.03-1.23.03.27-8.07,1.95-16.1,3.43-24.32,1.64-9.13,5.34-16.86,10.47-24.83,15.7-24.36,40.29-39.77,68.54-44.16,13.78-2.14,27.11-1.14,40.97,2.58,29.96,8.05,54.71,29.86,65.38,59.04,2.3,6.3,2.51,12.73,3.84,18.9Z"/>
      <path class="cls-25" d="M263.15,119.52c-.18,2.19-2.57,3.86-4.49,4.82-6.18-4.56-14.22-4.13-19.27,1.21s-5.2,13.32-.26,19.03,14,6.08,19.48,1.19,7.04-13.28,1.79-19.7c1.9-2.28,3.78-4.23,5.94-5.78-2.71,4.63,1.75,6.53,1.9,9.86.18,3.96.96,8.41.1,11.88-1.18,4.77-5.39,9.27-9.42,11.22-4.91,2.38-9.18,1.87-13.86.57-9.24-2.57-15.15-10.41-14.58-20.46.38-6.7,6.07-14.03,13.26-16.48,2.64-.9,11.53-.83,15.05,1.27,1.54.92,2.75,2.2,4.37,1.38Z"/>
      <path class="cls-44" d="M298.55,92.38c.97,2.04,2.03,15.8,1.87,18.89-.07,1.4-3.21,1.1-3.92-.76-2.6.78-3.86,2.42-5.7,4.82-2.21-1.4-.58-3.83-2.16-5.36-5.64-1.22,2.82-7.65,1.85-13.82,1.82-3.02,4.44-4.61,8.07-3.77Z"/>
      <path class="cls-56" d="M245.92,123.68c6.48-2.29,13.27,1.56,15.26,7.76s-1.45,12.97-7.99,15.32c-5.82,2.09-12.45-1.32-14.88-7.23-2.56-6.22.82-13.46,7.61-15.85ZM245.43,143.34c4.7,2.81,10.74-.32,12.59-5.07,1.98-5.08-.85-10.46-6.54-12.25-3.96-1.25-8.89,1.95-10.35,5.65-1.68,4.27.2,9.22,4.3,11.67Z"/>
      <path class="cls-96" d="M289.46,98.46c-1.21,6.77-7.59,9.76-1.65,12.37-.02,1.82,1.5,4.09,2.05,5.83,1.8,5.69-.91,11.37-2.42,16.5-2.61-4.22-2.07-9.38-3.95-14.46-1.45-3.92-3.47-7.44-4.34-11.25,2.5-3.55,6.02-6.1,9.15-9.65.61.34.67.98,1.17.67Z"/>
      <path class="cls-73" d="M298.48,90.23c-2.16.38-4.35,0-6.46.72-2.83-5.1,1.21-12.52-.63-18.37l-4.87-15.5c-.08-.27-.32-.23-.55-.14.45-.69-.13-.65.2-1.56,5.62,7.75,8.87,16.69,10.72,26.41l1.6,8.44Z"/>
      <path class="cls-85" d="M269.45,117.26c1.72-2.33,5.74-6.4,8.12-8.26,1.31,2.55,5.35,12.6,5.25,15.17-.04,1.17-1.52,1.47-2.29,2.14-1.2,1.03-.24,2.98-2.11,4.2-1.49-5.64-4.51-10.2-8.97-13.25Z"/>
      <path class="cls-37" d="M292.01,90.95c-.21.67-.98,1.37-1.7,1.45.89-6.96-2.18-6.55.08-12.01,1.37-3.32.5-5.51-.47-8.38-1.1-3.29-1.8-6.47-2.73-9.9-.45-1.65-2.28-3.55-1.24-5.17.24-.09.47-.13.55.14l4.87,15.5c1.84,5.84-2.2,13.27.63,18.37Z"/>
      <path class="cls-84" d="M279.23,102.89c-.3.35-.04.85-.18,1.18-.24.59-.97.39-1.51.38.3-3.8,1.98-14.12,4.47-15.71-1.51,5.92-2.81,9.29-2.78,14.16Z"/>
      <path class="cls-40" d="M271.52,246.28c-1.34.38-3.3-.49-4.72.65-2.43,1.97-4.26,4.55-7.35,6.11-1.47-.85-3.15-1.63-4.25-2.94,5.26-8.54,7.96-18.85,9.02-29.46l.68-6.87c.26-2.57,1.44-5.14.19-7.54-1.09,3.64-1.24,6.98-1.43,10.45-.64,11.63-3.72,22.46-8.72,32.59-.5-.25-.86.42-1.18.39-.63-.05-.9-1.33-1.62-1.55-11.71-3.72-25.31,3.32-26.96,16.7-1.11,9.02,4.11,19.01,13.98,21.66-.12.66-.18,1.1-.09,1.15-5.92,1.43-11.97,2.14-18.08,1.69-1.22-.09-2.47-.56-3.68-.52.73-2.47-6.14-4.03-7.41-4.5-5.44-2.01-11.01-1.08-15.98,1.93-1.23.75-2.84,1.09-2.91,2.56-.65-.09-1.01.45-1.66.5-10.57.92-20.76-1.25-30.53-5.86-4.17-1.97-8.02-4.68-12.51-6.41-2.49-.96-4.69-.98-6.16-3.52-2.42-4.16-3.29-8.76-2.96-13.65,1-14.98-3.45-40.73-9.4-54.5-1.14-2.63-1.66-5.21-2.71-8.3,5.5-2.43,4.84,8.64,12.25,12.7,3.42-5.06-1.11-12.84,2.64-13.37,3.44-.48,4.68,9.11,5.35,13.03-2.19.02-.7-1.96-1.72-2.41-1.23,3.49.71,6.02.8,9.19.28,10.3,2.6,19.8,6.62,29.24.84,1.97,1.65,4.34,3.78,5.38-6.11-12.74-10.79-26.29-9.64-41.24,2.76,10.48,4.16,21.29,11.53,29.34l5.51,6.02,10.5-.22c.76-.02,1.18-1.06,1.52-.25.08.2.42.74.85.92,2.15.9,3.63-.82,5-2.19,1.1,1.24,1.52,3.45,3.24,3.58,3.05.22,3.77-2.98,5.14-5.72,1.79,1.75,2.16,4.55,4.62,4.24s2.54-2.92,3.27-5.17c1.25,1.25,1.15,3.75,3.14,4.43,3.01,1.02,4.18-2.47,4.87-5.26,1.13,1.84,1.45,4.94,3.9,5.39,2.58.47,3.01-2.9,4.14-4.5.86,2.6,1.34,5.2,3.92,5.1,2.04-.07,2.41-2.29,4.05-4.14,1.37,2.52,2.02,5.05,4.6,5.61,1.92.42,2.82-1.73,3.69-3.52,1.21,1.07,1.99,1.75,2.73,2.22,1.15.73,2.86-.72,3.87-.69,3.86.14,8.16.23,11.74-.2,9.55-8.84,13.96-20.97,15.93-33.15.5-3.08,2.56-15.81,5.98-15.05,3.01.67.67,4.51,1.51,10.87,1,7.5,8.45-6.62,9.57-9.33.44-1.08,2.83-1.2,3.97-.81-1.36,5.55-3.79,9.99-5.49,15.28-4.09,12.71-4.48,21.93-6.91,33.93Z"/>
      <path class="cls-113" d="M254.92,249.27c.01.26.06.58.27.83,1.1,1.31,2.78,2.09,4.25,2.94-.77,1.9-2.57,3.23-4.28,4.68-5.82-5.2-13.78-5.35-19.33-.14-5.24,4.91-5.93,13.51-.73,19.32,4.58,5.12,12.61,6.19,18.54,1.81,5.97-4.4,7.16-12.53,3.25-19.14-.46-1.68,2.56-2.53,3.33-3.41,5.02,5.82,5,14.37,1.55,21.16-6.46,3.62-13.15,6.6-19.77,9.63-.77.35-2.07.47-2.95.68-.09-.05-.04-.49.09-1.15-9.87-2.65-15.09-12.63-13.98-21.66,1.65-13.38,15.25-20.42,26.96-16.7.72.23.99,1.5,1.62,1.55.32.03.68-.64,1.18-.39ZM230.12,273.91c-2.16-7.26-1.05-13.61,3.55-18.28,4.46-4.53,10.76-5.89,17.56-3.94.81.02,1.09.27,1.45.08.76-.4.66-1.33.32-.93-1.1,1.26-1.19-.36-1.62-.55-7.38-3.21-17.04-.09-21.4,6.86-4.42,7.04-4.48,16.09,1.33,22.48,3.11,3.43,7.25,7.07,11.98,5.23-5.83-2.12-11.38-4.93-13.17-10.94Z"/>
      <path class="cls-99" d="M271.67,248.5c-1.1,9.88,2.36,17.99-3.94,26.32-1.64,2.17-4.18,1.5-5.95,2.49,3.45-6.79,3.47-15.33-1.55-21.16,2.71-3.16,6.57-8.71,11.45-7.65Z"/>
      <path class="cls-82" d="M243.8,255.67c6.56-.82,12.39,3.75,13.47,9.88,1.2,6.8-3.49,12.95-10.2,13.96s-12.76-3.39-13.68-10.5c-.79-6.13,3.63-12.49,10.41-13.34ZM236.42,268.71c1.08,5.34,5.73,8.88,10.52,7.83,4.49-.99,8.14-5.5,7.15-10.7s-5.79-7.86-10.83-6.8c-3.67.77-7.71,5.32-6.83,9.67Z"/>
      <path class="cls-64" d="M273.68,248.54c-2.32,11.18,4.21,27.88-12.03,30.76-.12-.66-.18-1.37.13-1.99,1.77-.99,4.31-.32,5.95-2.49,6.3-8.33,2.84-16.44,3.94-26.32.52.11,1.11.11,2.01.04Z"/>
      <path class="cls-95" d="M99.46,209.6c2.54.06,4.32,2.57,6.71,1.46,1.89-.88,1.42-4.02.1-5.54-4.45-5.11-3.62-7.64-1.82-14.72.57-5.25-8.01-27.82-13.86-29.03-1.24-.26-1.59,1.72-3.2,2.64-1.03-1.91.65-3.16,1.69-3.66,6.46-3.13,12.88,14.76,14.64,19.19,5.84,14.7-3.71,15.25,3.42,24.08,1.86,2.3,2.82,6.09.41,7.97s-6.72.54-8.1-2.38Z"/>
      <path class="cls-27" d="M184.79,143.55c.19.12.39.17.61.11-.05.63-.3.93-.19,1.29.31.97-2.1.59-2.35,1.04-1.02,1.83-3.16,4.47-5.51,6.05-9.38,6.28-19.58,10.82-30.96,10.15-6.14-.36-11.3-3.97-12.28-10.27-1.11-7.07-2.65-14.63-1.33-21.91,1.53-8.48,9.39-14.97,17.27-16.36l15.66-2.76c1.97-.35,3.06-2.2,5.6-1.35,10.49,3.54,15.09,14.66,14.18,24.32-.39,4.08-1.97,7.63-2.53,11.42l1.85-1.74Z"/>
      <path class="cls-40" d="M129.71,130.85c.88.18,1.05.7,1.04,1.51-.1,6.85.39,13.39,1.63,19.81,2.42,12.55,15.58,12.85,25.96,10.86-1.53,4.95-6.24,5.86-10.35,6.63-3.46.64-5.32,4.11-7.61,5.51-3.98,2.42-3.13,4.98-4.4,8.49-1.15,3.19-4.27,7.21-4.02,11.44-5.3,1.82-10.92-2.38-13.75-6.56-1.05-1.55-2.27-2.14-4.02-3.2-3.88-2.37-6.95-10.16-2.41-13.4,4.79-3.43,8.62-6.15,8.72-12.59l.29-18.67c.07-4.71,4.37-9.05,4.8-14.46,1.48.5,2.07,1.19,2.39,1.93.32,1.11.42,2.5,1.74,2.72Z"/>
      <path class="cls-69" d="M158.84,226.12c-2.31.34-4.66-.87-7.3-1.05-4.05-9.52-3.84-18.15-7.68-29.01,10.04.29,16.86,10.33,14.46,19.94-1.31,5.26,3.11,4.5.52,10.12Z"/>
      <path class="cls-94" d="M257.17,224.8c-1.84.92-5.39,1.55-6.92,1.34-1.94-1.52-.81-4.4-.06-6.22,1.17-2.84-.29-5.55-.19-8.42.27-8.01,6.61-15.17,15-15.56-2.01,5.91-3.11,11.72-4.43,17.62-.81,3.62-.97,7.81-3.39,11.25Z"/>
      <path class="cls-75" d="M130.95,222.62c-.7,1.64-3.92-.09-4.91-1.44-3.99-5.42-7.58-11.68-8.22-18.68-.4-4.43.07-8.36-1.79-12.76l7.14,5.8c.91,8.94,7.26,17.26,7.78,27.07Z"/>
      <path class="cls-39" d="M277.51,222.89c1.14-9.97,7.41-18.75,8.14-27.27l7.45-6.22c-2.05,4.17-1.65,7.98-1.96,12.41-.36,5.1-6.54,23.28-13.63,21.08Z"/>
      <path class="cls-32" d="M216.56,228.06c-2.22,2.72-7.93,1.28-11.06.54-.36-4.11.37-16.53,5.31-16.37,5.25.17,6.01,11.08,5.75,15.83Z"/>
      <path class="cls-44" d="M203.69,228.32c-3.77,1.61-7.85,1.73-11.62.1-.21-4.31,1.13-15.87,5.17-16.15,1.47-.1,3.21.09,3.85,1.8,1.68,4.47,2.34,9.11,2.6,14.25Z"/>
      <path class="cls-43" d="M190.01,228.13c-.85,1.63-6.05,1.91-6.66,0-1.46-4.59-.05-10.69,3.13-13.87,5.42-.21,5.52,10.04,3.53,13.87Z"/>
      <path class="cls-106" d="M218.67,228.27c-.98-.75-2.95-12.75,3.17-14.32,3.57,3,5.15,9.98,3.56,14.29-.83,2.25-5.32,1.1-6.73.03Z"/>
      <path class="cls-106" d="M181.97,218.91c.29,3.25.44,10.86-3.95,12.1-3.95,1.12-3.84-12.33-1.48-15.6,1.53-2.12,5.25,1.46,5.43,3.5Z"/>
      <path class="cls-28" d="M232.31,230.49c-.67,1.2-6.51,1.17-5.44-11.49.17-1.96,3.71-5.89,5.31-3.5,2.58,3.87,2.26,11.16.13,14.99Z"/>
      <path class="cls-20" d="M183.53,245.91c-2.71-2.49-6.51-15.44.06-15.3,1.6.04,3.32.43,3.14,2.86,1.44,4.26,1.14,8.92-3.2,12.44Z"/>
      <path class="cls-87" d="M226.68,244.53c-.4,1.01-1.9,1.11-2.62.3-3.41-3.82-2.81-7.71-1.91-12.29.42-2.13,2.38-2.16,4.47-1.82,4.19.69,1.18,11,.06,13.81Z"/>
      <path class="cls-28" d="M194.33,230.76c1.82,2.98,1.98,11.58-.91,12.94-2.64,1.23-6.09-8.4-5.43-11.84.34-1.77,5.23-2.92,6.34-1.1Z"/>
      <path class="cls-102" d="M221.07,232.43c-.21,2.62-2.48,10.7-5.02,11.35-2.98.77-3.8-9.47-1.49-12.93,1.29-1.94,6.68-.47,6.52,1.58Z"/>
      <path class="cls-106" d="M203.26,230.41c.97,1.84-.39,13.68-3.02,12.84-3.19-1.02-3.7-8.32-4.09-12.11,2.28-.62,4.3-.32,7.11-.73Z"/>
      <path class="cls-18" d="M212.64,231.12c.44,1.56-2.45,15.55-4.89,11.92s-2.38-8.04-2.35-12.34c2.7-.12,4.88-.22,7.24.43Z"/>
      <path class="cls-98" d="M232.91,244.48c-1.69-.2-3.18-1.56-3.48-2.6-.14-.48-.13-8.86,1.49-9.15.85-.15,2.62-1.21,3.24.2,1.48,3.38,1.01,8.73-1.25,11.55Z"/>
      <path class="cls-18" d="M177.79,232.65c1.6.09,1.78,8.48,1.49,9.26-.41,1.11-1.78,2.08-3.45,2.79-2.19-3.83-2.47-8.24-1.1-12.18.96-.57,2.33.09,3.05.13Z"/>
      <path class="cls-58" d="M161.51,233.35l-1.89,6.11c-3.24-3.59-5.73-7.55-7.03-12.15,2.44.25,5.38.16,6.48,1.65.92,1.25.19,3.31,2.44,4.39Z"/>
      <path class="cls-70" d="M173.85,221.36c-1.16,4.84,2.04,8.55-.02,10.04-3.89,2.8-5.42-7.76-3.32-12.96.4-1,2.31-.09,2.68.41s.94,1.36.67,2.52Z"/>
      <path class="cls-31" d="M238.16,218.48c2.06,4.47,1.21,14.57-2.58,13.11-2.38-.92-.05-4.42-.46-11.85-.06-1.13,2.56-2.3,3.04-1.26Z"/>
      <path class="cls-52" d="M136.67,197.09c.22,3.43.56,6.34-.22,9.89-2.45-2.84-4.39-5.44-5.63-9.07,1.81-.61,3.04-.65,5.85-.82Z"/>
      <path class="cls-94" d="M277.94,197.86c-1.08,3.59-2.89,6.05-5.38,8.87-1.07-3.67-.4-6.24-.39-9.55,2.21.11,3.53.06,5.77.68Z"/>
      <path class="cls-81" d="M168.28,233.87c.15,6.8,2.03,9.05-.43,9.91-2.75.97-2.98-5.44-2.32-8.5.23-1.04,2.72-2.38,2.74-1.41Z"/>
      <path class="cls-22" d="M238.86,234.3c1.2,4.82-.46,10.87-2.59,9.06-1.29-1.1-.23-9.8.33-10.15s1.92-.26,2.26,1.09Z"/>
      <path class="cls-9" d="M171.7,232.98c1.77.23,1.25,9.86,1.24,9.87-.25.43-1.4,1.18-1.85.5-2.14-3.23-2.5-10.78.61-10.37Z"/>
      <path class="cls-106" d="M240.94,233.32c4.22,1.1,2.69,9.02,1.5,10.06-.76.67-1.42.51-1.92.15-1.19-.87-.86-2.08-.39-3.32.88-2.32-.36-4.73.8-6.89Z"/>
      <path class="cls-121" d="M240.44,220.88c2.78-3.63,3.58,10.42-.63,11.3-.52-1.34.58-11.24.63-11.3Z"/>
      <path class="cls-88" d="M168.31,220.87c-.19-.23,1.43,10.31.53,11.54-3.92-1.31-3.13-14.71-.53-11.54Z"/>
      <path class="cls-26" d="M163.84,243.59c-2.16.93-2.82-5.09-1.86-8.58.28-1.01,2.46-1.64,2.42-.89-1.83,6.13,1.74,8.48-.57,9.47Z"/>
      <path class="cls-30" d="M246.59,242.73c-4.23,3.59-.61-2.76-2.12-7.91-.15-.52.79-.77,1.06-.71,2.2.44,2.1,6.08,1.05,8.63Z"/>
      <path class="cls-4" d="M244.11,220.78c1.67.02,2.06,14.73-1.67,11.31,1.99-3.37.51-7.15,1.67-11.31Z"/>
      <path class="cls-86" d="M166.45,232.61c-4.34,1.04-3.38-12.52-1.22-11.31-.22,3.93-.24,7.35,1.22,11.31Z"/>
      <path class="cls-63" d="M246.57,222.1c2.26-1.76,2.38,12.44-.83,10.76.15-3.86,1.34-7.01.83-10.76Z"/>
      <path class="cls-109" d="M162.96,232.01c-3.16,2.47-2.95-10.57-.4-10.33-.79,3.61.09,6.68.4,10.33Z"/>
      <path class="cls-65" d="M261.65,279.3c-5.51,3.81-11.72,6.55-18.12,8.36-.17-.66-.97-.48-1.51-.72,6.61-3.03,13.31-6.01,19.77-9.63-.31.62-.25,1.33-.13,1.99Z"/>
      <path class="cls-11" d="M217.31,288.79c-1.57.05-2.99-.28-4.53-.47.4-3.33-16.78-4.63-16.67-.02-1.7.22-3.41.71-5.1.48.07-1.47,1.68-1.81,2.91-2.56,4.97-3.01,10.54-3.94,15.98-1.93,1.27.47,8.14,2.03,7.41,4.5Z"/>
      <path class="cls-16" d="M212.77,288.32c-5.58-.68-11.09-.75-16.67-.02-.11-4.61,17.06-3.31,16.67.02Z"/>
      <path class="cls-74" d="M129.25,112.96c-.32.21-.61-.11-.94-.11,2.25-7.85,1.72-15.67-1.82-24.06,3.56,2.34,3.22,7.05,4.29,10.85,1.31,4.62-.12,9.18-1.53,13.32Z"/>
      <path class="cls-44" d="M287.44,133.17c6.72-6.74.32-25.96,12.94-19.92,1.07,6.26.47,13.34.11,19.84-.66,12.01-1.95,23.37-4.75,35.05-10.32-3.73-3.13-26.61-8.29-34.97Z"/>
      <path class="cls-36" d="M201.3,164.03c-2.45,2.52-2.25,14.48.14,16.53-.22,2.97.02,6.53-3.37,8.16-3.98,1.91-8.51-.46-9.98-4.46-1.23-3.35-1.35-6.79-.41-10.46,2.86-11.07,7.28-21.21,12.15-31.52.63-.62,1.43-.83,1.71-.56.31.3.66,1.3.66,1.93l.02,15.93c0,1.16-.17,3.67-.93,4.46Z"/>
      <path class="cls-78" d="M201.44,180.55c-2.4-2.04-2.59-14-.14-16.53,1.73-.95.4,6.95,1.01,11.3.29,2.07-.75,3.64-.87,5.23Z"/>
      <path class="cls-111" d="M245.43,143.34c-4.1-2.45-5.98-7.41-4.3-11.67,1.46-3.7,6.38-6.9,10.35-5.65,5.7,1.79,8.53,7.18,6.54,12.25-1.86,4.75-7.89,7.89-12.59,5.07Z"/>
      <path class="cls-89" d="M255.19,250.1c-.21-.25-.25-.57-.27-.83,5-10.13,8.08-20.96,8.72-32.59.19-3.47.35-6.81,1.43-10.45,1.26,2.4.07,4.97-.19,7.54l-.68,6.87c-1.06,10.61-3.75,20.92-9.02,29.46Z"/>
      <path class="cls-83" d="M230.12,273.91c1.78,6.01,7.34,8.81,13.17,10.94-4.73,1.84-8.87-1.8-11.98-5.23-5.81-6.39-5.75-15.44-1.33-22.48,4.36-6.95,14.03-10.07,21.4-6.86.43.19.52,1.81,1.62.55.34-.39.44.53-.32.93-.36.19-.64-.06-1.45-.08-6.8-1.95-13.1-.58-17.56,3.94-4.6,4.67-5.71,11.03-3.55,18.28Z"/>
      <path class="cls-49" d="M236.42,268.71c-.88-4.35,3.17-8.9,6.83-9.67,5.05-1.06,9.86,1.67,10.83,6.8s-2.66,9.72-7.15,10.7c-4.78,1.05-9.43-2.5-10.52-7.83Z"/>
    </g>
    <text class="cls-1" transform="translate(347.45 92.42)"><tspan x="0" y="0">Øjn</tspan><tspan class="cls-60" x="14.15" y="0">h</tspan><tspan class="cls-72" x="19.69" y="0">ule</tspan></text>
    <text class="cls-1" transform="translate(369.39 173.06)"><tspan class="cls-100" x="0" y="0">N</tspan><tspan class="cls-116" x="6.2" y="0">æ</tspan><tspan class="cls-68" x="14.32" y="0">s</tspan><tspan x="19.06" y="0">e</tspan><tspan class="cls-62" x="24.18" y="0">b</tspan><tspan x="29.69" y="0">e</tspan><tspan class="cls-108" x="34.81" y="0">n</tspan></text>
    <text class="cls-1" transform="translate(355.05 250.1)"><tspan class="cls-97" x="0" y="0">U</tspan><tspan x="6.04" y="0">nde</tspan><tspan class="cls-60" x="22.15" y="0">r</tspan><tspan class="cls-104" x="25.79" y="0">k</tspan><tspan x="30.72" y="0">ø</tspan><tspan class="cls-62" x="35.98" y="0">b</tspan><tspan x="41.48" y="0">e</tspan></text>
    <text class="cls-1" transform="translate(347.9 306.44)"><tspan class="cls-100" x="0" y="0">N</tspan><tspan x="6.2" y="0">a</tspan><tspan class="cls-118" x="11.44" y="0">k</tspan><tspan class="cls-103" x="16.43" y="0">k</tspan><tspan x="21.36" y="0">e</tspan><tspan class="cls-101" x="26.48" y="0">h</tspan><tspan class="cls-105" x="31.92" y="0">v</tspan><tspan x="36.77" y="0">ivl</tspan></text>
    <text class="cls-1" transform="translate(.04 128.02)"><tspan class="cls-67" x="0" y="0">t</tspan><tspan x="3.17" y="0">indinge</tspan><tspan class="cls-62" x="35.47" y="0">b</tspan><tspan x="40.98" y="0">e</tspan><tspan class="cls-108" x="46.1" y="0">n</tspan></text>
  </g>
</svg>