<?xml version="1.0" encoding="UTF-8"?>
<svg id="ren_tegning" data-name="ren tegning" xmlns="http://www.w3.org/2000/svg" viewBox="0 0 111.3 100.92">
  <defs>
    <style>
      .cls-1 {
        fill: #d41700;
      }
    </style>
  </defs>
  <path class="cls-1" d="M74.49,11.8c-2.11-1.71-4.53-1.52-6.19-.27s-2.71,4.9-2.6,7.03,1.35,5.47,2.03,4.36-.44-2.14-.44-4.06c0-2.9,1.25-5.75,3.21-5.78s2.87.74,3.58.07.68-1.13.41-1.35Z"/>
  <path d="M66.55,41.45c.55-1.77,8.31-.96,9.75,1.93s-1.99,6.32-3.67,6.44-3.85-.36-3.01-1.44,5.42-.98,4.58-3.02-3.92-3.22-5.12-2.58c-1.39.75-2.64-.98-2.53-1.32Z"/>
  <path d="M26.53,40.23c2.18.58,4.43.06,5.38-.28.25-.09.43-.18.58-.26-.03-.19-.06-.41-.09-.69-.13-1-.33-1.54-1.25-2.03-1.67.21-2.38-.49-3.06-.66-.85-.22-3.43-1.25-4.71-.34-1.29.91.99,3.69,3.16,4.27Z"/>
  <g>
    <path d="M34.14,39.25c3.94,2.13,4.83,4.69,5.89,5.95.74.88,1.83,2.48,2.51,3.45,1.17,1.15,2.12,1.93,2.81,2.63.03,0,.07-.01.1-.01.19.27.38.54.57.8,0,0,0,0,0,0,0,0,0,0,0,0,2.52,3.56,4.25,6.49.51,10.54-4.02,4.36-5.53,5.28-7.16,5.95,0,0-1.64.56-2.25.77.26,2.65,1.5,4.25,2.46,4.97.96.72,2.17-.9,2.23-1.2.06-.3-2.11-.9-1.44-1.69.66-.78,12.28-7.77,11.32-12.88-.96-5.12-2.17-8.01-5.48-10.72-3.31-2.71-10.35-9.87-10.47-11.5-.12-1.63.36-5.78,5.12-6.98,4.76-1.2,9.57-3.37,11.26-3.49,1.69-.12,5.6-1.57,7.89-1.44,2.29.12,3.31.72,3.49.36.18-.36,1-2.19.08-2.36-7.3-1.36-13.58.69-16.4,1.83-2.82,1.15-11.14,4.69-13.28,6.89-1.79,1.84-1.85,3.92-1.55,5,.54,1.13,1.09,2.06,1.81,3.11Z"/>
    <path d="M85.88,56.68c-5.06-2.71-11.44-4.39-17.16-2.29,0,0-2.28-5.66-2.56-8.09-.55-.32-1.57-.9-2.15-1.23-.02.64.05,2.01.32,2.52,0,0-11.32-.78-15.05,1.2l.12,1.66s6.62-.22,9.15-.34c2.53-.12,6.26.34,6.26.34l1.75,4.84s-10.23,6.02-13.48,8.61c-3.25,2.59-12.4,11.86-15.23,13.85-2.83,1.99-7.95,7.95-13.67,8.13s-14.93-1.26-17.16-10.9c-2.23-9.63,3.19-15.41,5.78-16.43,2.59-1.02,11.86-.84,15.71.54,0,0-8.55,11.62-8.55,12.34s1.08,1.51,1.99,1.32,9.09-12.7,9.33-12.64c.23.06,4.98,5.71,5.74,8.63.47-.26,1.23-.68,2.09-1.16-.63-2.12-2.41-7.1-5.76-9.02,0,0,5.78-5.6,10.51-6.98-.41-.46-1.03-1.13-1.64-1.66-2.12,1.11-7.48,4.05-10.69,7.21,0,0-7.86-2.83-12.77-2.53s-6.51.38-9.99,3.12c-3.49,2.74-4.19,8.34-4.57,10.09s.08,12.13,2.88,15.17,6.99,7.28,16.45,6.19c9.45-1.08,16.01-10.35,18.84-12.1s15.65-13.42,17.4-14.57c1.75-1.14,6.98-4.94,7.77-5.18,0,0,5,11.62,6.62,13.85l1.63-.36-6.32-14.15s7.46-2.59,13.85,2.17c6.38,4.76,7.83,10.78,7.1,13.79s-2.53,11.08-9.81,12.4-14.99-1.32-18.66-5.36-2.23-9.75-2.71-10.23c-.48-.48-2.35-1.02-2.47.66s.66,10.41,6.08,14.69,13.91,4.64,19.32,2.65c5.42-1.99,11.02-9.21,11.2-14.33.18-5.12-2.41-13.73-7.46-16.43Z"/>
  </g>
  <path d="M59.75,27.09c-2.32,3.59-4.32,7.17-2.53,10.02s4.11,5.43,7.49,7.49,4.38,2.95,4.54,2.64,1.15-.95.94-1.63-10.33-4.17-10.33-9.12,1.35-7.54,1.27-8.17c-.2-1.45-1.12-1.23-1.37-1.21Z"/>
</svg>