<?xml version="1.0" encoding="UTF-8"?>
<svg xmlns="http://www.w3.org/2000/svg" version="1.1" viewBox="0 0 160 160">
  <!-- Generator: Adobe Illustrator 30.2.1, SVG Export Plug-In . SVG Version: 2.1.1 Build 1)  -->
  <defs>
    <style>
      .st0 {
        fill: none;
        stroke: #000;
        stroke-miterlimit: 10;
      }

      .st1 {
        fill: #d41700;
      }

      .st2 {
        display: none;
      }
    </style>
  </defs>
  <g id="kopi_x5F_af_x5F_logo" class="st2">
    <path class="st0" d="M59.1,65.52"/>
    <path d="M98.84,37.83c-2.11-1.71-4.53-1.52-6.19-.27s-2.71,4.9-2.6,7.03,1.35,5.47,2.03,4.36-.44-2.14-.44-4.06c0-2.9,1.25-5.75,3.21-5.78s2.87.74,3.58.07.68-1.13.41-1.35Z"/>
    <path d="M90.9,67.49c.55-1.77,8.31-.96,9.75,1.93s-1.99,6.32-3.67,6.44-3.85-.36-3.01-1.44,5.42-.98,4.58-3.02-3.92-3.22-5.12-2.58c-1.39.75-2.64-.98-2.53-1.32Z"/>
    <path d="M110.23,82.72c-5.06-2.71-11.44-4.39-17.16-2.29,0,0-2.77-6.86-2.59-8.73,0,0,1.93,1.44,2.53,1.44s1.53-1.69,1.53-1.69c0,0-1.34-.3-3.57-1.69-2.23-1.38-8.07-5-7.4-9.57.66-4.58,2.41-6.26,2.29-6.62-.12-.36-1.14-1.51-1.99-.9s-4.21,5.84-2.41,9.81c1.81,3.97,5.36,6.8,7.1,7.83,0,0-.48,2.17.12,3.31,0,0-11.32-.78-15.05,1.2l.12,1.66s6.62-.22,9.15-.34c2.53-.12,6.26.34,6.26.34l1.75,4.84s-10.23,6.02-13.48,8.61c-3.25,2.59-12.4,11.86-15.23,13.85-2.83,1.99-7.95,7.95-13.67,8.13s-14.93-1.26-17.16-10.9c-2.23-9.63,3.19-15.41,5.78-16.43,2.59-1.02,11.86-.84,15.71.54,0,0-8.55,11.62-8.55,12.34s1.08,1.51,1.99,1.32,9.09-12.7,9.33-12.64c.24.06,5.6,6.44,5.84,9.15.24,2.71,1.51,4.33,2.47,5.06s2.17-.9,2.23-1.2c.06-.3-2.11-.9-1.44-1.69.66-.78,12.28-7.77,11.32-12.88-.96-5.12-2.17-8.01-5.48-10.72-3.31-2.71-10.35-9.87-10.47-11.5-.12-1.63.36-5.78,5.12-6.98,4.76-1.2,9.57-3.37,11.26-3.49,1.69-.12,5.6-1.57,7.89-1.44,2.29.12,3.31.72,3.49.36.18-.36,1-2.19.08-2.36-7.3-1.36-13.58.69-16.4,1.83-2.82,1.15-11.14,4.69-13.28,6.89-2.14,2.2-1.81,4.74-1.35,5.5-2.74.93-3.61-.12-4.45-.34-.85-.22-3.43-1.25-4.71-.34-1.29.91.99,3.69,3.16,4.27,2.18.58,4.43.06,5.38-.28s.83-.64,2.18-.73c3.99,2.14,4.88,4.71,5.94,5.98,1.07,1.27,2.88,4.05,3.1,4.25,0,0-7.54,3.68-11.61,7.68,0,0-7.86-2.83-12.77-2.53s-6.51.38-9.99,3.12c-3.49,2.74-4.19,8.34-4.57,10.09s.08,12.13,2.88,15.17,6.99,7.28,16.45,6.19c9.45-1.08,16.01-10.35,18.84-12.1s15.65-13.42,17.4-14.57c1.75-1.14,6.98-4.94,7.77-5.18,0,0,5,11.62,6.62,13.85l1.63-.36-6.32-14.15s7.46-2.59,13.85,2.17c6.38,4.76,7.83,10.78,7.1,13.79s-2.53,11.08-9.81,12.4-14.99-1.32-18.66-5.36-2.23-9.75-2.71-10.23c-.48-.48-2.35-1.02-2.47.66s.66,10.41,6.08,14.69,13.91,4.64,19.32,2.65c5.42-1.99,11.02-9.21,11.2-14.33.18-5.12-2.41-13.73-7.46-16.43ZM69.8,77.31c2.81,3.94,5.11,7,1.09,11.35s-5.53,5.28-7.16,5.95c0,0-1.72-7.54-6.03-10.01,0,0,7.21-7,12.11-7.29Z"/>
  </g>
  <g id="ren_tegning">
    <path class="st0" d="M59.1,65.52"/>
    <path class="st1" d="M98.84,37.83c-2.11-1.71-4.53-1.52-6.19-.27s-2.71,4.9-2.6,7.03,1.35,5.47,2.03,4.36-.44-2.14-.44-4.06c0-2.9,1.25-5.75,3.21-5.78s2.87.74,3.58.07.68-1.13.41-1.35Z"/>
    <path d="M90.9,67.49c.55-1.77,8.31-.96,9.75,1.93s-1.99,6.32-3.67,6.44-3.85-.36-3.01-1.44,5.42-.98,4.58-3.02-3.92-3.22-5.12-2.58c-1.39.75-2.64-.98-2.53-1.32Z"/>
    <path d="M50.88,66.26c2.18.58,4.43.06,5.38-.28.25-.09.43-.18.58-.26-.03-.19-.06-.41-.09-.69-.13-1-.33-1.54-1.25-2.03-1.67.21-2.38-.49-3.06-.66-.85-.22-3.43-1.25-4.71-.34-1.29.91.99,3.69,3.16,4.27Z"/>
    <g>
      <path d="M58.49,65.29c3.94,2.13,4.83,4.69,5.89,5.95.74.88,1.83,2.48,2.51,3.45,1.17,1.15,2.12,1.93,2.81,2.63.03,0,.07-.01.1-.01.19.27.38.54.57.8,0,0,0,0,0,0,0,0,0,0,0,0,2.52,3.56,4.25,6.49.51,10.54-4.02,4.36-5.53,5.28-7.16,5.95,0,0-1.64.56-2.25.77.26,2.65,1.5,4.25,2.46,4.97.96.72,2.17-.9,2.23-1.2.06-.3-2.11-.9-1.44-1.69.66-.78,12.28-7.77,11.32-12.88-.96-5.12-2.17-8.01-5.48-10.72-3.31-2.71-10.35-9.87-10.47-11.5-.12-1.63.36-5.78,5.12-6.98,4.76-1.2,9.57-3.37,11.26-3.49,1.69-.12,5.6-1.57,7.89-1.44,2.29.12,3.31.72,3.49.36.18-.36,1-2.19.08-2.36-7.3-1.36-13.58.69-16.4,1.83-2.82,1.15-11.14,4.69-13.28,6.89-1.79,1.84-1.85,3.92-1.55,5,.54,1.13,1.09,2.06,1.81,3.11Z"/>
      <path d="M110.23,82.72c-5.06-2.71-11.44-4.39-17.16-2.29,0,0-2.28-5.66-2.56-8.09-.55-.32-1.57-.9-2.15-1.23-.02.64.05,2.01.32,2.52,0,0-11.32-.78-15.05,1.2l.12,1.66s6.62-.22,9.15-.34c2.53-.12,6.26.34,6.26.34l1.75,4.84s-10.23,6.02-13.48,8.61c-3.25,2.59-12.4,11.86-15.23,13.85-2.83,1.99-7.95,7.95-13.67,8.13s-14.93-1.26-17.16-10.9c-2.23-9.63,3.19-15.41,5.78-16.43,2.59-1.02,11.86-.84,15.71.54,0,0-8.55,11.62-8.55,12.34s1.08,1.51,1.99,1.32,9.09-12.7,9.33-12.64c.23.06,4.98,5.71,5.74,8.63.47-.26,1.23-.68,2.09-1.16-.63-2.12-2.41-7.1-5.76-9.02,0,0,5.78-5.6,10.51-6.98-.41-.46-1.03-1.13-1.64-1.66-2.12,1.11-7.48,4.05-10.69,7.21,0,0-7.86-2.83-12.77-2.53s-6.51.38-9.99,3.12c-3.49,2.74-4.19,8.34-4.57,10.09s.08,12.13,2.88,15.17,6.99,7.28,16.45,6.19c9.45-1.08,16.01-10.35,18.84-12.1s15.65-13.42,17.4-14.57c1.75-1.14,6.98-4.94,7.77-5.18,0,0,5,11.62,6.62,13.85l1.63-.36-6.32-14.15s7.46-2.59,13.85,2.17c6.38,4.76,7.83,10.78,7.1,13.79s-2.53,11.08-9.81,12.4-14.99-1.32-18.66-5.36-2.23-9.75-2.71-10.23c-.48-.48-2.35-1.02-2.47.66s.66,10.41,6.08,14.69,13.91,4.64,19.32,2.65c5.42-1.99,11.02-9.21,11.2-14.33.18-5.12-2.41-13.73-7.46-16.43Z"/>
    </g>
    <path d="M84.1,53.13c-2.32,3.59-4.32,7.17-2.53,10.02s4.11,5.43,7.49,7.49,4.38,2.95,4.54,2.64,1.15-.95.94-1.63-10.33-4.17-10.33-9.12,1.35-7.54,1.27-8.17c-.2-1.45-1.12-1.23-1.37-1.21Z"/>
  </g>
</svg>